<svg id="Layer_1" data-name="Layer 1" xmlns="http://www.w3.org/2000/svg" viewBox="0 0 170.23 72">
  <defs>
    <style>
      .cls-1 {
        fill: #f0efef;
      }

      .cls-2 {
        fill: #231f20;
      }

      .cls-3 {
        fill: #29abe2;
      }

      .cls-4 {
        fill: none;
        stroke: #29abe2;
      }
    </style>
  </defs>
  <title>1</title>
  <g>
    <rect class="cls-1" width="170.23" height="72"/>
    <g>
      <path class="cls-2" d="M23.84,8.55h1V13h-1V11.28H22.05V13h-1V8.55h1v1.88h1.79Z" transform="translate(13.11)"/>
      <path class="cls-2" d="M29.31,11.32a1.71,1.71,0,0,1-.52,1.27,1.92,1.92,0,0,1-2.61,0,1.8,1.8,0,0,1,0-2.53,1.91,1.91,0,0,1,2.61,0A1.72,1.72,0,0,1,29.31,11.32Zm-2.69,0a1,1,0,0,0,.24.69.85.85,0,0,0,1.23,0,1,1,0,0,0,.24-.69,1,1,0,0,0-.24-.69.84.84,0,0,0-1.23,0A1,1,0,0,0,26.62,11.32Z" transform="translate(13.11)"/>
      <path class="cls-2" d="M31.76,13h-1L29.59,9.59h1l.67,2.09.67-2.09h.93l.67,2.09.67-2.09h1L34,13H33l-.64-1.88Z" transform="translate(13.11)"/>
      <path class="cls-2" d="M38.83,13.1a1.46,1.46,0,0,1-1.1-.52,1.83,1.83,0,0,1-.48-1.29A1.75,1.75,0,0,1,37.73,10a1.47,1.47,0,0,1,1.1-.49,1.32,1.32,0,0,1,1,.44V8.28h1V13h-1v-.46A1.25,1.25,0,0,1,38.83,13.1Zm-.61-1.77a1,1,0,0,0,.25.68.78.78,0,0,0,.58.27.73.73,0,0,0,.57-.27,1,1,0,0,0,.23-.69,1.05,1.05,0,0,0-.23-.7.72.72,0,0,0-.57-.28.75.75,0,0,0-.58.28A1,1,0,0,0,38.23,11.32Z" transform="translate(13.11)"/>
      <path class="cls-2" d="M45.18,11.32a1.71,1.71,0,0,1-.52,1.27,1.92,1.92,0,0,1-2.61,0A1.8,1.8,0,0,1,42,10a1.91,1.91,0,0,1,2.61,0A1.72,1.72,0,0,1,45.18,11.32Zm-2.69,0a1,1,0,0,0,.24.69A.85.85,0,0,0,44,12a1,1,0,0,0,.24-.69,1,1,0,0,0-.24-.69.84.84,0,0,0-1.23,0A1,1,0,0,0,42.5,11.32Z" transform="translate(13.11)"/>
      <path class="cls-2" d="M48.89,12.54a1.93,1.93,0,0,1-1.37.55,1.82,1.82,0,0,1-1.3-.48,1.7,1.7,0,0,1-.51-1.3,1.68,1.68,0,0,1,.52-1.3,1.77,1.77,0,0,1,1.24-.48,1.79,1.79,0,0,1,1.21.43,1.48,1.48,0,0,1,.5,1.18v.51H46.66a.69.69,0,0,0,.3.46,1,1,0,0,0,.57.18,1.11,1.11,0,0,0,.84-.34Zm-.93-2a.73.73,0,0,0-.48-.17.87.87,0,0,0-.52.17.66.66,0,0,0-.28.47H48.2A.68.68,0,0,0,48,10.49Z" transform="translate(13.11)"/>
      <path class="cls-2" d="M52.47,12a1,1,0,0,1-.38.82,1.45,1.45,0,0,1-1,.31,2.56,2.56,0,0,1-.8-.14,2.37,2.37,0,0,1-.75-.41l.42-.6a1.85,1.85,0,0,0,1.15.42.52.52,0,0,0,.3-.07.23.23,0,0,0,.11-.2.28.28,0,0,0-.15-.22,1.69,1.69,0,0,0-.44-.19l-.44-.15a2.46,2.46,0,0,1-.34-.19.8.8,0,0,1-.39-.72,1,1,0,0,1,.39-.78,1.57,1.57,0,0,1,1-.3,2.17,2.17,0,0,1,1.22.41l-.36.64a1.57,1.57,0,0,0-.9-.31q-.45,0-.45.24a.23.23,0,0,0,.14.21,2.83,2.83,0,0,0,.47.18l.47.16a2.4,2.4,0,0,1,.33.17A.79.79,0,0,1,52.47,12Z" transform="translate(13.11)"/>
      <path class="cls-2" d="M57.06,12.16a1.48,1.48,0,0,0,1.21-.58l.64.66a2.42,2.42,0,0,1-3.51.21,2.21,2.21,0,0,1-.67-1.65,2.24,2.24,0,0,1,.68-1.67,2.3,2.3,0,0,1,1.67-.67,2.37,2.37,0,0,1,1.85.84l-.62.71a1.46,1.46,0,0,0-1.18-.59,1.38,1.38,0,0,0-1,.37,1.29,1.29,0,0,0-.4,1,1.36,1.36,0,0,0,.38,1A1.25,1.25,0,0,0,57.06,12.16Z" transform="translate(13.11)"/>
      <path class="cls-2" d="M61.42,10.44a.73.73,0,0,0-.64.31,1.39,1.39,0,0,0-.21.81V13h-1V9.59h1V10A1.62,1.62,0,0,1,61,9.68a1.27,1.27,0,0,1,.57-.15v.91Z" transform="translate(13.11)"/>
      <path class="cls-2" d="M62.33,9.15a.57.57,0,1,1,.4.16A.55.55,0,0,1,62.33,9.15Zm.88,3.9h-1V9.59h1Z" transform="translate(13.11)"/>
      <path class="cls-2" d="M67.29,11.18V13h-1V11.16a1.13,1.13,0,0,0-.13-.6.45.45,0,0,0-.4-.19.69.69,0,0,0-.49.21.81.81,0,0,0-.22.61V13h-1V9.59h1V10A1.19,1.19,0,0,1,66,9.53a1,1,0,0,1,.59.19,1.26,1.26,0,0,1,.4.47,1.36,1.36,0,0,1,.54-.49,1.47,1.47,0,0,1,.68-.17,1.35,1.35,0,0,1,1,.36,1.4,1.4,0,0,1,.37,1.05V13h-1V11.16q0-.8-.58-.8a.69.69,0,0,0-.5.21A.82.82,0,0,0,67.29,11.18Z" transform="translate(13.11)"/>
      <path class="cls-2" d="M73.43,12.54a1.93,1.93,0,0,1-1.37.55,1.82,1.82,0,0,1-1.3-.48,1.7,1.7,0,0,1-.51-1.3,1.68,1.68,0,0,1,.52-1.3A1.77,1.77,0,0,1,72,9.53a1.79,1.79,0,0,1,1.21.43,1.48,1.48,0,0,1,.5,1.18v.51H71.19a.69.69,0,0,0,.3.46,1,1,0,0,0,.57.18,1.11,1.11,0,0,0,.84-.34Zm-.93-2a.73.73,0,0,0-.48-.17.87.87,0,0,0-.52.17.66.66,0,0,0-.28.47h1.52A.68.68,0,0,0,72.5,10.49Z" transform="translate(13.11)"/>
      <path class="cls-2" d="M75.5,9.45a.39.39,0,0,0-.14.31.36.36,0,0,0,.18.31,3.22,3.22,0,0,0,.82.27,2.3,2.3,0,0,1,1,.47,1.17,1.17,0,0,1,.35.92,1.21,1.21,0,0,1-.45,1A1.8,1.8,0,0,1,76,13.1a2.76,2.76,0,0,1-1.92-.79l.6-.73a2.13,2.13,0,0,0,1.34.64.7.7,0,0,0,.43-.12.38.38,0,0,0,.16-.32.38.38,0,0,0-.17-.32,2.18,2.18,0,0,0-.66-.24,2.88,2.88,0,0,1-1.15-.49,1.15,1.15,0,0,1-.36-.94,1.16,1.16,0,0,1,.46-1,1.85,1.85,0,0,1,1.15-.35,2.75,2.75,0,0,1,.9.15,2.41,2.41,0,0,1,.78.44l-.51.73a2,2,0,0,0-1.21-.44A.6.6,0,0,0,75.5,9.45Z" transform="translate(13.11)"/>
      <path class="cls-2" d="M80.11,12.24a1.1,1.1,0,0,0,.87-.48l.57.64a2,2,0,0,1-1.45.69,1.87,1.87,0,0,1-1.31-.49,1.66,1.66,0,0,1-.54-1.28A1.67,1.67,0,0,1,78.8,10a1.84,1.84,0,0,1,1.29-.5,2,2,0,0,1,.75.15,1.91,1.91,0,0,1,.67.46l-.5.66a1.19,1.19,0,0,0-.89-.42.94.94,0,0,0-.65.25.88.88,0,0,0-.27.69.87.87,0,0,0,.27.68A.93.93,0,0,0,80.11,12.24Z" transform="translate(13.11)"/>
      <path class="cls-2" d="M85.13,13h-.91v-.42a1.14,1.14,0,0,1-.92.47,1.37,1.37,0,0,1-.92-.32,1.06,1.06,0,0,1-.37-.85.9.9,0,0,1,.39-.79,1.85,1.85,0,0,1,1.05-.26h.72v0q0-.55-.58-.55a1.59,1.59,0,0,0-.53.1,1.73,1.73,0,0,0-.47.25L82.15,10a2.58,2.58,0,0,1,1.55-.5,1.61,1.61,0,0,1,1,.32,1.19,1.19,0,0,1,.4,1Zm-1-1.32v-.17h-.6q-.58,0-.58.36a.33.33,0,0,0,.14.29.66.66,0,0,0,.39.1.7.7,0,0,0,.45-.16A.51.51,0,0,0,84.16,11.73Z" transform="translate(13.11)"/>
      <path class="cls-2" d="M88,9.53a1.44,1.44,0,0,1,1.08.5,1.78,1.78,0,0,1,.47,1.27,1.82,1.82,0,0,1-.47,1.28,1.46,1.46,0,0,1-1.1.51,1.22,1.22,0,0,1-1-.51v1.7H86V9.59h1V10A1.43,1.43,0,0,1,88,9.53ZM87,11.32a1,1,0,0,0,.23.69.73.73,0,0,0,.57.27.78.78,0,0,0,.58-.27,1,1,0,0,0,.25-.68,1,1,0,0,0-.24-.7.75.75,0,0,0-.58-.28.72.72,0,0,0-.58.28A1.05,1.05,0,0,0,87,11.32Z" transform="translate(13.11)"/>
      <path class="cls-2" d="M93.28,12.54a1.93,1.93,0,0,1-1.37.55,1.82,1.82,0,0,1-1.3-.48,1.7,1.7,0,0,1-.51-1.3,1.68,1.68,0,0,1,.52-1.3,1.77,1.77,0,0,1,1.24-.48,1.79,1.79,0,0,1,1.21.43,1.48,1.48,0,0,1,.5,1.18v.51H91a.69.69,0,0,0,.3.46,1,1,0,0,0,.57.18,1.11,1.11,0,0,0,.84-.34Zm-.93-2a.73.73,0,0,0-.48-.17.87.87,0,0,0-.52.17.66.66,0,0,0-.28.47h1.52A.68.68,0,0,0,92.35,10.49Z" transform="translate(13.11)"/>
      <path class="cls-2" d="M98.94,12.54a1.93,1.93,0,0,1-1.37.55,1.82,1.82,0,0,1-1.3-.48,1.7,1.7,0,0,1-.51-1.3,1.68,1.68,0,0,1,.52-1.3,1.77,1.77,0,0,1,1.24-.48,1.79,1.79,0,0,1,1.21.43,1.48,1.48,0,0,1,.5,1.18v.51H96.71a.69.69,0,0,0,.3.46,1,1,0,0,0,.57.18A1.11,1.11,0,0,0,98.4,12Zm-.93-2a.73.73,0,0,0-.48-.17.87.87,0,0,0-.52.17.66.66,0,0,0-.28.47h1.52A.68.68,0,0,0,98,10.49Z" transform="translate(13.11)"/>
      <path class="cls-2" d="M100.8,13,99.43,9.58h1l.86,2.18.86-2.18h1L101.79,13Z" transform="translate(13.11)"/>
      <path class="cls-2" d="M106.53,13h-.91v-.42a1.14,1.14,0,0,1-.92.47,1.37,1.37,0,0,1-.92-.32,1.06,1.06,0,0,1-.37-.85.9.9,0,0,1,.39-.79,1.85,1.85,0,0,1,1.05-.26h.72v0q0-.55-.58-.55a1.59,1.59,0,0,0-.53.1,1.73,1.73,0,0,0-.47.25l-.43-.62a2.58,2.58,0,0,1,1.55-.5,1.61,1.61,0,0,1,1,.32,1.19,1.19,0,0,1,.4,1Zm-1-1.32v-.17H105q-.58,0-.58.36a.33.33,0,0,0,.14.29.66.66,0,0,0,.39.1.7.7,0,0,0,.45-.16A.51.51,0,0,0,105.56,11.73Z" transform="translate(13.11)"/>
      <path class="cls-2" d="M108.37,13h-1V8.28h1Z" transform="translate(13.11)"/>
      <path class="cls-2" d="M111.52,11.45V9.59h1V13h-1v-.46a1.09,1.09,0,0,1-.93.51,1.35,1.35,0,0,1-1-.36,1.37,1.37,0,0,1-.39-1.06V9.59h1v1.88q0,.8.58.8a.69.69,0,0,0,.5-.21A.81.81,0,0,0,111.52,11.45Z" transform="translate(13.11)"/>
      <path class="cls-2" d="M116.33,13h-.91v-.42a1.14,1.14,0,0,1-.92.47,1.37,1.37,0,0,1-.92-.32,1.06,1.06,0,0,1-.37-.85.9.9,0,0,1,.39-.79,1.85,1.85,0,0,1,1.05-.26h.72v0q0-.55-.58-.55a1.59,1.59,0,0,0-.53.1,1.73,1.73,0,0,0-.47.25l-.43-.62a2.58,2.58,0,0,1,1.55-.5,1.61,1.61,0,0,1,1,.32,1.19,1.19,0,0,1,.4,1Zm-1-1.32v-.17h-.6q-.58,0-.58.36a.33.33,0,0,0,.14.29.66.66,0,0,0,.39.1.7.7,0,0,0,.45-.16A.51.51,0,0,0,115.36,11.73Z" transform="translate(13.11)"/>
      <path class="cls-2" d="M118.33,10.28v1.55a.45.45,0,0,0,.1.31.32.32,0,0,0,.24.11.56.56,0,0,0,.46-.24l.36.67a1.39,1.39,0,0,1-.95.41,1.15,1.15,0,0,1-1.19-1.22V10.28H117V9.59h.4v-1h1v1h.84v.69Z" transform="translate(13.11)"/>
      <path class="cls-2" d="M123,12.54a1.93,1.93,0,0,1-1.37.55,1.82,1.82,0,0,1-1.3-.48,1.7,1.7,0,0,1-.51-1.3,1.68,1.68,0,0,1,.52-1.3,1.77,1.77,0,0,1,1.24-.48,1.79,1.79,0,0,1,1.21.43,1.48,1.48,0,0,1,.5,1.18v.51h-2.52a.69.69,0,0,0,.3.46,1,1,0,0,0,.57.18,1.11,1.11,0,0,0,.84-.34Zm-.93-2a.73.73,0,0,0-.48-.17.87.87,0,0,0-.52.17.66.66,0,0,0-.28.47h1.52A.68.68,0,0,0,122.08,10.49Z" transform="translate(13.11)"/>
    </g>
    <g>
      <path class="cls-2" d="M29.33,21.88a1.46,1.46,0,0,1-1.1-.52,1.83,1.83,0,0,1-.48-1.29,1.75,1.75,0,0,1,.47-1.26,1.47,1.47,0,0,1,1.1-.49,1.32,1.32,0,0,1,1,.44v-1.7h1v4.77h-1v-.46A1.25,1.25,0,0,1,29.33,21.88Zm-.61-1.77a1,1,0,0,0,.25.68.78.78,0,0,0,.58.27.73.73,0,0,0,.57-.27,1,1,0,0,0,.23-.69,1.05,1.05,0,0,0-.23-.7.72.72,0,0,0-.57-.28.75.75,0,0,0-.58.28A1,1,0,0,0,28.72,20.1Z" transform="translate(13.11)"/>
      <path class="cls-2" d="M35.16,21.82h-.91v-.42a1.14,1.14,0,0,1-.92.47,1.37,1.37,0,0,1-.92-.32,1.06,1.06,0,0,1-.37-.85.9.9,0,0,1,.39-.79,1.85,1.85,0,0,1,1.05-.26h.72v0q0-.55-.58-.55a1.59,1.59,0,0,0-.53.1,1.73,1.73,0,0,0-.47.25l-.43-.62a2.58,2.58,0,0,1,1.55-.5,1.61,1.61,0,0,1,1,.32,1.19,1.19,0,0,1,.4,1Zm-1-1.32v-.17h-.6q-.58,0-.58.36a.33.33,0,0,0,.14.29.66.66,0,0,0,.39.1.7.7,0,0,0,.45-.16A.51.51,0,0,0,34.19,20.51Z" transform="translate(13.11)"/>
      <path class="cls-2" d="M37.15,19.06v1.55a.45.45,0,0,0,.1.31.32.32,0,0,0,.24.11.56.56,0,0,0,.46-.24l.36.67a1.39,1.39,0,0,1-.95.41,1.15,1.15,0,0,1-1.19-1.22V19.06h-.4v-.69h.4v-1h1v1H38v.69Z" transform="translate(13.11)"/>
      <path class="cls-2" d="M41.77,21.82h-.91v-.42a1.14,1.14,0,0,1-.92.47,1.37,1.37,0,0,1-.92-.32,1.06,1.06,0,0,1-.37-.85.9.9,0,0,1,.39-.79,1.85,1.85,0,0,1,1.05-.26h.72v0q0-.55-.58-.55a1.59,1.59,0,0,0-.53.1,1.73,1.73,0,0,0-.47.25l-.43-.62a2.58,2.58,0,0,1,1.55-.5,1.61,1.61,0,0,1,1,.32,1.19,1.19,0,0,1,.4,1Zm-1-1.32v-.17h-.6q-.58,0-.58.36a.33.33,0,0,0,.14.29.66.66,0,0,0,.39.1.7.7,0,0,0,.45-.16A.51.51,0,0,0,40.8,20.51Z" transform="translate(13.11)"/>
      <path class="cls-2" d="M46.57,20.23V18.37h1v3.46h-1v-.46a1.09,1.09,0,0,1-.93.51,1.35,1.35,0,0,1-1-.36,1.37,1.37,0,0,1-.39-1.06V18.37h1v1.88q0,.8.58.8a.69.69,0,0,0,.5-.21A.81.81,0,0,0,46.57,20.23Z" transform="translate(13.11)"/>
      <path class="cls-2" d="M51.06,20.75a1,1,0,0,1-.38.82,1.45,1.45,0,0,1-1,.31,2.56,2.56,0,0,1-.8-.14,2.37,2.37,0,0,1-.75-.41l.42-.6a1.85,1.85,0,0,0,1.15.42.52.52,0,0,0,.3-.07.23.23,0,0,0,.11-.2.28.28,0,0,0-.15-.22,1.69,1.69,0,0,0-.44-.19l-.44-.15a2.46,2.46,0,0,1-.34-.19.8.8,0,0,1-.39-.72,1,1,0,0,1,.39-.78,1.57,1.57,0,0,1,1-.3,2.17,2.17,0,0,1,1.22.41l-.36.64a1.57,1.57,0,0,0-.9-.31q-.45,0-.45.24a.23.23,0,0,0,.14.21,2.83,2.83,0,0,0,.47.18l.47.16a2.4,2.4,0,0,1,.33.17A.79.79,0,0,1,51.06,20.75Z" transform="translate(13.11)"/>
      <path class="cls-2" d="M54.79,21.32a1.93,1.93,0,0,1-1.37.55,1.82,1.82,0,0,1-1.3-.48,1.7,1.7,0,0,1-.51-1.3,1.68,1.68,0,0,1,.52-1.3,1.77,1.77,0,0,1,1.24-.48,1.79,1.79,0,0,1,1.21.43,1.48,1.48,0,0,1,.5,1.18v.51H52.55a.69.69,0,0,0,.3.46,1,1,0,0,0,.57.18,1.11,1.11,0,0,0,.84-.34Zm-.93-2a.73.73,0,0,0-.48-.17.87.87,0,0,0-.52.17.66.66,0,0,0-.28.47h1.52A.68.68,0,0,0,53.86,19.27Z" transform="translate(13.11)"/>
      <path class="cls-2" d="M57.15,21.88a1.46,1.46,0,0,1-1.1-.52,1.83,1.83,0,0,1-.48-1.29A1.75,1.75,0,0,1,56,18.8a1.47,1.47,0,0,1,1.1-.49,1.32,1.32,0,0,1,1,.44v-1.7h1v4.77h-1v-.46A1.25,1.25,0,0,1,57.15,21.88Zm-.61-1.77a1,1,0,0,0,.25.68.78.78,0,0,0,.58.27.73.73,0,0,0,.57-.27,1,1,0,0,0,.23-.69,1.05,1.05,0,0,0-.23-.7.72.72,0,0,0-.57-.28.75.75,0,0,0-.58.28A1,1,0,0,0,56.54,20.1Z" transform="translate(13.11)"/>
      <path class="cls-2" d="M61.82,17.93a.57.57,0,1,1,.4.16A.55.55,0,0,1,61.82,17.93Zm.88,3.9h-1V18.37h1Z" transform="translate(13.11)"/>
      <path class="cls-2" d="M64.58,19.9v1.93h-1V18.37h1v.39a1.35,1.35,0,0,1,1-.44,1.22,1.22,0,0,1,.92.39,1.42,1.42,0,0,1,.37,1v2.1h-1v-2q0-.8-.58-.8a.7.7,0,0,0-.5.21A.82.82,0,0,0,64.58,19.9Z" transform="translate(13.11)"/>
      <path class="cls-2" d="M72.87,20.1a1.71,1.71,0,0,1-.52,1.27,1.92,1.92,0,0,1-2.61,0,1.8,1.8,0,0,1,0-2.53,1.91,1.91,0,0,1,2.61,0A1.72,1.72,0,0,1,72.87,20.1Zm-2.69,0a1,1,0,0,0,.24.69.85.85,0,0,0,1.23,0,1,1,0,0,0,.24-.69,1,1,0,0,0-.24-.69.84.84,0,0,0-1.23,0A1,1,0,0,0,70.19,20.1Z" transform="translate(13.11)"/>
      <path class="cls-2" d="M75.81,20.23V18.37h1v3.46h-1v-.46a1.09,1.09,0,0,1-.93.51,1.35,1.35,0,0,1-1-.36,1.37,1.37,0,0,1-.39-1.06V18.37h1v1.88q0,.8.58.8a.69.69,0,0,0,.5-.21A.81.81,0,0,0,75.81,20.23Z" transform="translate(13.11)"/>
      <path class="cls-2" d="M79.51,19.22a.73.73,0,0,0-.64.31,1.39,1.39,0,0,0-.21.81v1.5h-1V18.37h1v.46a1.62,1.62,0,0,1,.47-.36,1.27,1.27,0,0,1,.57-.15v.91Z" transform="translate(13.11)"/>
      <path class="cls-2" d="M85.2,20v1.86h-1V19.94a1.13,1.13,0,0,0-.13-.6.45.45,0,0,0-.4-.19.69.69,0,0,0-.49.21A.81.81,0,0,0,83,20v1.86H82V18.37h1v.39a1.19,1.19,0,0,1,.91-.45,1,1,0,0,1,.59.19,1.26,1.26,0,0,1,.4.47,1.36,1.36,0,0,1,.54-.49,1.47,1.47,0,0,1,.68-.17,1.35,1.35,0,0,1,1,.36,1.4,1.4,0,0,1,.37,1.05v2.1h-1V19.94q0-.8-.58-.8a.69.69,0,0,0-.5.21A.82.82,0,0,0,85.2,20Z" transform="translate(13.11)"/>
      <path class="cls-2" d="M91.8,20.1a1.71,1.71,0,0,1-.52,1.27,1.92,1.92,0,0,1-2.61,0,1.8,1.8,0,0,1,0-2.53,1.91,1.91,0,0,1,2.61,0A1.72,1.72,0,0,1,91.8,20.1Zm-2.69,0a1,1,0,0,0,.24.69.85.85,0,0,0,1.23,0,1,1,0,0,0,.24-.69,1,1,0,0,0-.24-.69.84.84,0,0,0-1.23,0A1,1,0,0,0,89.12,20.1Z" transform="translate(13.11)"/>
      <path class="cls-2" d="M93.9,21.88a1.46,1.46,0,0,1-1.1-.52,1.83,1.83,0,0,1-.48-1.29,1.75,1.75,0,0,1,.47-1.26,1.47,1.47,0,0,1,1.1-.49,1.32,1.32,0,0,1,1,.44v-1.7h1v4.77h-1v-.46A1.25,1.25,0,0,1,93.9,21.88Zm-.61-1.77a1,1,0,0,0,.25.68.78.78,0,0,0,.58.27.73.73,0,0,0,.57-.27,1,1,0,0,0,.23-.69,1.05,1.05,0,0,0-.23-.7.72.72,0,0,0-.57-.28.75.75,0,0,0-.58.28A1,1,0,0,0,93.29,20.1Z" transform="translate(13.11)"/>
      <path class="cls-2" d="M99.79,21.32a1.93,1.93,0,0,1-1.37.55,1.82,1.82,0,0,1-1.3-.48,1.7,1.7,0,0,1-.51-1.3,1.68,1.68,0,0,1,.52-1.3,1.77,1.77,0,0,1,1.24-.48,1.79,1.79,0,0,1,1.21.43,1.48,1.48,0,0,1,.5,1.18v.51H97.55a.69.69,0,0,0,.3.46,1,1,0,0,0,.57.18,1.11,1.11,0,0,0,.84-.34Zm-.93-2a.73.73,0,0,0-.48-.17.87.87,0,0,0-.52.17.66.66,0,0,0-.28.47h1.52A.68.68,0,0,0,98.86,19.27Z" transform="translate(13.11)"/>
      <path class="cls-2" d="M101.73,21.82h-1V17.06h1Z" transform="translate(13.11)"/>
      <path class="cls-2" d="M105.24,20.75a1,1,0,0,1-.38.82,1.45,1.45,0,0,1-1,.31,2.56,2.56,0,0,1-.8-.14,2.37,2.37,0,0,1-.75-.41l.42-.6a1.85,1.85,0,0,0,1.15.42.52.52,0,0,0,.3-.07.23.23,0,0,0,.11-.2.28.28,0,0,0-.15-.22,1.69,1.69,0,0,0-.44-.19l-.44-.15a2.46,2.46,0,0,1-.34-.19.8.8,0,0,1-.39-.72,1,1,0,0,1,.39-.78,1.57,1.57,0,0,1,1-.3,2.17,2.17,0,0,1,1.22.41l-.36.64a1.57,1.57,0,0,0-.9-.31q-.45,0-.45.24a.23.23,0,0,0,.14.21,2.83,2.83,0,0,0,.47.18l.47.16a2.4,2.4,0,0,1,.33.17A.79.79,0,0,1,105.24,20.75Z" transform="translate(13.11)"/>
      <path class="cls-2" d="M108.82,18.17v.23h.84v.69h-.84v2.73h-1V19.1h-.4V18.4h.4v-.21a1.16,1.16,0,0,1,1.2-1.23,1.34,1.34,0,0,1,.93.39l-.35.65a.62.62,0,0,0-.47-.24.32.32,0,0,0-.24.11A.45.45,0,0,0,108.82,18.17Z" transform="translate(13.11)"/>
      <path class="cls-2" d="M113.63,20.1a1.71,1.71,0,0,1-.52,1.27,1.92,1.92,0,0,1-2.61,0,1.8,1.8,0,0,1,0-2.53,1.91,1.91,0,0,1,2.61,0A1.72,1.72,0,0,1,113.63,20.1Zm-2.69,0a1,1,0,0,0,.24.69.85.85,0,0,0,1.23,0,1,1,0,0,0,.24-.69,1,1,0,0,0-.24-.69.84.84,0,0,0-1.23,0A1,1,0,0,0,110.94,20.1Z" transform="translate(13.11)"/>
      <path class="cls-2" d="M116.16,19.22a.73.73,0,0,0-.64.31,1.39,1.39,0,0,0-.21.81v1.5h-1V18.37h1v.46a1.62,1.62,0,0,1,.47-.36,1.27,1.27,0,0,1,.57-.15v.91Z" transform="translate(13.11)"/>
    </g>
    <g>
      <path class="cls-2" d="M41.37,28.74v1.86h-1V28.72a1.13,1.13,0,0,0-.13-.6.45.45,0,0,0-.4-.19.69.69,0,0,0-.49.21.81.81,0,0,0-.22.61v1.86h-1V27.15h1v.39a1.19,1.19,0,0,1,.91-.45,1,1,0,0,1,.59.19,1.26,1.26,0,0,1,.4.47,1.36,1.36,0,0,1,.54-.49,1.47,1.47,0,0,1,.68-.17,1.35,1.35,0,0,1,1,.36,1.4,1.4,0,0,1,.37,1.05v2.1h-1V28.72q0-.8-.58-.8a.69.69,0,0,0-.5.21A.82.82,0,0,0,41.37,28.74Z" transform="translate(13.11)"/>
      <path class="cls-2" d="M44.59,26.71a.57.57,0,1,1,.4.16A.55.55,0,0,1,44.59,26.71Zm.88,3.9h-1V27.15h1Z" transform="translate(13.11)"/>
      <path class="cls-2" d="M49,29.53a1,1,0,0,1-.38.82,1.45,1.45,0,0,1-1,.31,2.56,2.56,0,0,1-.8-.14,2.37,2.37,0,0,1-.75-.41l.42-.6a1.85,1.85,0,0,0,1.15.42.52.52,0,0,0,.3-.07.23.23,0,0,0,.11-.2.28.28,0,0,0-.15-.22,1.69,1.69,0,0,0-.44-.19l-.44-.15a2.46,2.46,0,0,1-.34-.19.8.8,0,0,1-.39-.72,1,1,0,0,1,.39-.78,1.57,1.57,0,0,1,1-.3,2.17,2.17,0,0,1,1.22.41l-.36.64a1.57,1.57,0,0,0-.9-.31q-.45,0-.45.24a.23.23,0,0,0,.14.21,2.83,2.83,0,0,0,.47.18l.47.16a2.4,2.4,0,0,1,.33.17A.79.79,0,0,1,49,29.53Z" transform="translate(13.11)"/>
      <path class="cls-2" d="M52.33,29.53a1,1,0,0,1-.38.82,1.45,1.45,0,0,1-1,.31,2.56,2.56,0,0,1-.8-.14,2.37,2.37,0,0,1-.75-.41l.42-.6a1.85,1.85,0,0,0,1.15.42.52.52,0,0,0,.3-.07.23.23,0,0,0,.11-.2.28.28,0,0,0-.15-.22,1.69,1.69,0,0,0-.44-.19l-.44-.15a2.46,2.46,0,0,1-.34-.19.8.8,0,0,1-.39-.72,1,1,0,0,1,.39-.78,1.57,1.57,0,0,1,1-.3,2.17,2.17,0,0,1,1.22.41l-.36.64a1.57,1.57,0,0,0-.9-.31q-.45,0-.45.24a.23.23,0,0,0,.14.21,2.83,2.83,0,0,0,.47.18l.47.16a2.4,2.4,0,0,1,.33.17A.79.79,0,0,1,52.33,29.53Z" transform="translate(13.11)"/>
      <path class="cls-2" d="M53.15,26.71a.57.57,0,1,1,.4.16A.55.55,0,0,1,53.15,26.71Zm.88,3.9h-1V27.15h1Z" transform="translate(13.11)"/>
      <path class="cls-2" d="M55.91,28.68v1.93h-1V27.15h1v.39a1.35,1.35,0,0,1,1-.44,1.22,1.22,0,0,1,.92.39,1.42,1.42,0,0,1,.37,1v2.1h-1v-2q0-.8-.58-.8a.7.7,0,0,0-.5.21A.82.82,0,0,0,55.91,28.68Z" transform="translate(13.11)"/>
      <path class="cls-2" d="M61.6,30a1.46,1.46,0,0,1-1.13.51,1.57,1.57,0,0,1-1.14-.46,1.65,1.65,0,0,1-.47-1.23,1.73,1.73,0,0,1,.48-1.26,1.49,1.49,0,0,1,1.1-.49,1.25,1.25,0,0,1,1,.51v-.46h1v3a2,2,0,0,1-.16.82,1.42,1.42,0,0,1-.43.57,2,2,0,0,1-1.26.42,2.63,2.63,0,0,1-.79-.13,2.23,2.23,0,0,1-.7-.36l.37-.73a1.64,1.64,0,0,0,1,.36,1.25,1.25,0,0,0,.84-.26A1,1,0,0,0,61.6,30Zm-.13-1.22a.89.89,0,0,0-.23-.65.77.77,0,0,0-.57-.24.82.82,0,0,0-.59.24.86.86,0,0,0-.25.65.93.93,0,0,0,.24.66.78.78,0,0,0,.59.25.75.75,0,0,0,.58-.25A.94.94,0,0,0,61.47,28.8Z" transform="translate(13.11)"/>
      <path class="cls-2" d="M65.11,26.71a.57.57,0,1,1,.4.16A.55.55,0,0,1,65.11,26.71Zm.88,3.9H65V27.15h1Z" transform="translate(13.11)"/>
      <path class="cls-2" d="M67.87,28.68v1.93h-1V27.15h1v.39a1.35,1.35,0,0,1,1-.44,1.22,1.22,0,0,1,.92.39,1.42,1.42,0,0,1,.37,1v2.1h-1v-2q0-.8-.58-.8a.7.7,0,0,0-.5.21A.82.82,0,0,0,67.87,28.68Z" transform="translate(13.11)"/>
      <path class="cls-2" d="M72.13,27v.23H73v.69h-.84v2.73h-1V27.88h-.4v-.69h.4V27a1.16,1.16,0,0,1,1.2-1.23,1.34,1.34,0,0,1,.93.39l-.35.65a.62.62,0,0,0-.47-.24.32.32,0,0,0-.24.11A.45.45,0,0,0,72.13,27Z" transform="translate(13.11)"/>
      <path class="cls-2" d="M76.94,28.88a1.71,1.71,0,0,1-.52,1.27,1.92,1.92,0,0,1-2.61,0,1.8,1.8,0,0,1,0-2.53,1.91,1.91,0,0,1,2.61,0A1.72,1.72,0,0,1,76.94,28.88Zm-2.69,0a1,1,0,0,0,.24.69.85.85,0,0,0,1.23,0,1,1,0,0,0,.24-.69,1,1,0,0,0-.24-.69.84.84,0,0,0-1.23,0A1,1,0,0,0,74.25,28.88Z" transform="translate(13.11)"/>
      <path class="cls-2" d="M79.47,28a.73.73,0,0,0-.64.31,1.39,1.39,0,0,0-.21.81v1.5h-1V27.15h1v.46a1.62,1.62,0,0,1,.47-.36,1.27,1.27,0,0,1,.57-.15V28Z" transform="translate(13.11)"/>
      <path class="cls-2" d="M83.46,28.74v1.86h-1V28.72a1.13,1.13,0,0,0-.13-.6.45.45,0,0,0-.4-.19.69.69,0,0,0-.49.21.81.81,0,0,0-.22.61v1.86h-1V27.15h1v.39a1.19,1.19,0,0,1,.91-.45,1,1,0,0,1,.59.19,1.26,1.26,0,0,1,.4.47,1.36,1.36,0,0,1,.54-.49,1.47,1.47,0,0,1,.68-.17,1.35,1.35,0,0,1,1,.36,1.4,1.4,0,0,1,.37,1.05v2.1h-1V28.72q0-.8-.58-.8a.69.69,0,0,0-.5.21A.82.82,0,0,0,83.46,28.74Z" transform="translate(13.11)"/>
      <path class="cls-2" d="M89.54,30.61h-.91v-.42a1.14,1.14,0,0,1-.92.47,1.37,1.37,0,0,1-.92-.32,1.06,1.06,0,0,1-.37-.85.9.9,0,0,1,.39-.79,1.85,1.85,0,0,1,1.05-.26h.72v0q0-.55-.58-.55a1.59,1.59,0,0,0-.53.1,1.73,1.73,0,0,0-.47.25l-.43-.62a2.58,2.58,0,0,1,1.55-.5,1.61,1.61,0,0,1,1,.32,1.19,1.19,0,0,1,.4,1Zm-1-1.32v-.17H88q-.58,0-.58.36a.33.33,0,0,0,.14.29.66.66,0,0,0,.39.1.7.7,0,0,0,.45-.16A.51.51,0,0,0,88.57,29.29Z" transform="translate(13.11)"/>
      <path class="cls-2" d="M91.53,27.84v1.55a.45.45,0,0,0,.1.31.32.32,0,0,0,.24.11.56.56,0,0,0,.46-.24l.36.67a1.39,1.39,0,0,1-.95.41,1.15,1.15,0,0,1-1.19-1.22V27.84h-.4v-.69h.4v-1h1v1h.84v.69Z" transform="translate(13.11)"/>
      <path class="cls-2" d="M93.29,26.71a.57.57,0,1,1,.4.16A.55.55,0,0,1,93.29,26.71Zm.88,3.9h-1V27.15h1Z" transform="translate(13.11)"/>
      <path class="cls-2" d="M98.54,28.88A1.71,1.71,0,0,1,98,30.14a1.92,1.92,0,0,1-2.61,0,1.8,1.8,0,0,1,0-2.53,1.91,1.91,0,0,1,2.61,0A1.72,1.72,0,0,1,98.54,28.88Zm-2.69,0a1,1,0,0,0,.24.69.85.85,0,0,0,1.23,0,1,1,0,0,0,.24-.69,1,1,0,0,0-.24-.69.84.84,0,0,0-1.23,0A1,1,0,0,0,95.85,28.88Z" transform="translate(13.11)"/>
      <path class="cls-2" d="M100.22,28.68v1.93h-1V27.15h1v.39a1.35,1.35,0,0,1,1-.44,1.22,1.22,0,0,1,.92.39,1.42,1.42,0,0,1,.37,1v2.1h-1v-2q0-.8-.58-.8a.7.7,0,0,0-.5.21A.82.82,0,0,0,100.22,28.68Z" transform="translate(13.11)"/>
      <path class="cls-2" d="M105,29.27h-1v-.48a.9.9,0,0,1,.07-.39,1.71,1.71,0,0,1,.29-.36l.44-.45a.45.45,0,0,0,.1-.3.46.46,0,0,0-.1-.3.34.34,0,0,0-.27-.12.34.34,0,0,0-.28.14.74.74,0,0,0-.14.38h-1a1.54,1.54,0,0,1,.47-1,1.58,1.58,0,0,1,2,0,1.14,1.14,0,0,1,.38.91.87.87,0,0,1-.06.38l-.09.18a.88.88,0,0,1-.12.16l-.13.14-.29.29a1,1,0,0,0-.18.22.59.59,0,0,0,0,.26Zm-.88,1.22a.57.57,0,1,1,.4.16A.55.55,0,0,1,104.15,30.49Z" transform="translate(13.11)"/>
    </g>
    <g>
      <path class="cls-3" d="M33.47,54.69a.39.39,0,0,0-.14.31.36.36,0,0,0,.18.31,3.22,3.22,0,0,0,.82.27,2.3,2.3,0,0,1,1,.47,1.17,1.17,0,0,1,.35.92,1.21,1.21,0,0,1-.45,1,1.8,1.8,0,0,1-1.19.38,2.76,2.76,0,0,1-1.92-.79l.6-.73a2.13,2.13,0,0,0,1.34.64.7.7,0,0,0,.43-.12.38.38,0,0,0,.16-.32.38.38,0,0,0-.17-.32,2.18,2.18,0,0,0-.66-.24A2.88,2.88,0,0,1,32.66,56a1.15,1.15,0,0,1-.36-.94,1.16,1.16,0,0,1,.46-1,1.85,1.85,0,0,1,1.15-.35,2.75,2.75,0,0,1,.9.15,2.41,2.41,0,0,1,.78.44l-.51.73a2,2,0,0,0-1.21-.44A.6.6,0,0,0,33.47,54.69Z" transform="translate(13.11)"/>
      <path class="cls-3" d="M39.42,57.78a1.93,1.93,0,0,1-1.37.55,1.82,1.82,0,0,1-1.3-.48,1.7,1.7,0,0,1-.51-1.3,1.68,1.68,0,0,1,.52-1.3A1.77,1.77,0,0,1,38,54.77a1.79,1.79,0,0,1,1.21.43,1.48,1.48,0,0,1,.5,1.18v.51H37.18a.69.69,0,0,0,.3.46,1,1,0,0,0,.57.18,1.11,1.11,0,0,0,.84-.34Zm-.93-2a.73.73,0,0,0-.48-.17.87.87,0,0,0-.52.17.66.66,0,0,0-.28.47h1.52A.68.68,0,0,0,38.49,55.73Z" transform="translate(13.11)"/>
      <path class="cls-3" d="M43.39,57.78a1.93,1.93,0,0,1-1.37.55,1.82,1.82,0,0,1-1.3-.48,1.7,1.7,0,0,1-.51-1.3,1.68,1.68,0,0,1,.52-1.3A1.77,1.77,0,0,1,42,54.77a1.79,1.79,0,0,1,1.21.43,1.48,1.48,0,0,1,.5,1.18v.51H41.15a.69.69,0,0,0,.3.46,1,1,0,0,0,.57.18,1.11,1.11,0,0,0,.84-.34Zm-.93-2a.73.73,0,0,0-.48-.17.87.87,0,0,0-.52.17.66.66,0,0,0-.28.47h1.52A.68.68,0,0,0,42.46,55.73Z" transform="translate(13.11)"/>
      <path class="cls-3" d="M49.51,56.55A1.71,1.71,0,0,1,49,57.82a1.92,1.92,0,0,1-2.61,0,1.8,1.8,0,0,1,0-2.53,1.91,1.91,0,0,1,2.61,0A1.72,1.72,0,0,1,49.51,56.55Zm-2.69,0a1,1,0,0,0,.24.69.85.85,0,0,0,1.23,0,1,1,0,0,0,.24-.69,1,1,0,0,0-.24-.69.84.84,0,0,0-1.23,0A1,1,0,0,0,46.83,56.55Z" transform="translate(13.11)"/>
      <path class="cls-3" d="M52.46,56.69V54.82h1v3.46h-1v-.46a1.09,1.09,0,0,1-.93.51,1.35,1.35,0,0,1-1-.36,1.37,1.37,0,0,1-.39-1.06V54.82h1v1.88q0,.8.58.8a.69.69,0,0,0,.5-.21A.81.81,0,0,0,52.46,56.69Z" transform="translate(13.11)"/>
      <path class="cls-3" d="M56.16,55.67a.73.73,0,0,0-.64.31,1.39,1.39,0,0,0-.21.81v1.5h-1V54.82h1v.46a1.62,1.62,0,0,1,.47-.36,1.27,1.27,0,0,1,.57-.15v.91Z" transform="translate(13.11)"/>
      <path class="cls-3" d="M62.2,54.38A2.11,2.11,0,0,1,62.84,56a2.21,2.21,0,0,1-.63,1.66,2.64,2.64,0,0,1-1.91.61H58.77V53.79h1.59A2.64,2.64,0,0,1,62.2,54.38ZM61.47,57a1.32,1.32,0,0,0,.37-1,1.35,1.35,0,0,0-.37-1,1.58,1.58,0,0,0-1.13-.36h-.56v2.73h.64A1.49,1.49,0,0,0,61.47,57Z" transform="translate(13.11)"/>
      <path class="cls-3" d="M66.5,58.28H65.6v-.42a1.14,1.14,0,0,1-.92.47,1.37,1.37,0,0,1-.92-.32,1.06,1.06,0,0,1-.37-.85.9.9,0,0,1,.39-.79,1.85,1.85,0,0,1,1.05-.26h.72v0q0-.55-.58-.55a1.59,1.59,0,0,0-.53.1,1.73,1.73,0,0,0-.47.25l-.43-.62a2.58,2.58,0,0,1,1.55-.5,1.61,1.61,0,0,1,1,.32,1.19,1.19,0,0,1,.4,1Zm-1-1.32V56.8h-.6q-.58,0-.58.36a.33.33,0,0,0,.14.29.66.66,0,0,0,.39.1.7.7,0,0,0,.45-.16A.51.51,0,0,0,65.53,57Z" transform="translate(13.11)"/>
      <path class="cls-3" d="M68.5,55.52v1.55a.45.45,0,0,0,.1.31.32.32,0,0,0,.24.11.56.56,0,0,0,.46-.24l.36.67a1.39,1.39,0,0,1-.95.41,1.15,1.15,0,0,1-1.19-1.22V55.52h-.4v-.69h.4v-1h1v1h.84v.69Z" transform="translate(13.11)"/>
      <path class="cls-3" d="M73.11,58.28H72.2v-.42a1.14,1.14,0,0,1-.92.47,1.37,1.37,0,0,1-.92-.32,1.06,1.06,0,0,1-.37-.85.9.9,0,0,1,.39-.79,1.85,1.85,0,0,1,1.05-.26h.72v0q0-.55-.58-.55a1.59,1.59,0,0,0-.53.1,1.73,1.73,0,0,0-.47.25l-.43-.62a2.58,2.58,0,0,1,1.55-.5,1.61,1.61,0,0,1,1,.32,1.19,1.19,0,0,1,.4,1Zm-1-1.32V56.8h-.6q-.58,0-.58.36a.33.33,0,0,0,.14.29.66.66,0,0,0,.39.1.7.7,0,0,0,.45-.16A.51.51,0,0,0,72.14,57Z" transform="translate(13.11)"/>
      <path class="cls-3" d="M75.78,53.79h1v4.49h-1Z" transform="translate(13.11)"/>
      <path class="cls-3" d="M78.73,56.35v1.93h-1V54.82h1v.39a1.35,1.35,0,0,1,1-.44,1.22,1.22,0,0,1,.92.39,1.42,1.42,0,0,1,.37,1v2.1H80v-2q0-.8-.58-.8a.7.7,0,0,0-.5.21A.82.82,0,0,0,78.73,56.35Z" transform="translate(13.11)"/>
      <path class="cls-3" d="M83.88,54.77a1.44,1.44,0,0,1,1.08.5,1.78,1.78,0,0,1,.47,1.27A1.82,1.82,0,0,1,85,57.82a1.46,1.46,0,0,1-1.1.51,1.22,1.22,0,0,1-1-.51v1.7h-1v-4.7h1v.39A1.43,1.43,0,0,1,83.88,54.77Zm-1.06,1.79a1,1,0,0,0,.23.69.73.73,0,0,0,.57.27.78.78,0,0,0,.58-.27,1,1,0,0,0,.25-.68,1,1,0,0,0-.24-.7.75.75,0,0,0-.58-.28.72.72,0,0,0-.58.28A1.05,1.05,0,0,0,82.82,56.56Z" transform="translate(13.11)"/>
      <path class="cls-3" d="M88.38,56.69V54.82h1v3.46h-1v-.46a1.09,1.09,0,0,1-.93.51,1.35,1.35,0,0,1-1-.36,1.37,1.37,0,0,1-.39-1.06V54.82h1v1.88q0,.8.58.8a.69.69,0,0,0,.5-.21A.81.81,0,0,0,88.38,56.69Z" transform="translate(13.11)"/>
      <path class="cls-3" d="M91.41,55.52v1.55a.45.45,0,0,0,.1.31.32.32,0,0,0,.24.11.56.56,0,0,0,.46-.24l.36.67a1.39,1.39,0,0,1-.95.41,1.15,1.15,0,0,1-1.19-1.22V55.52H90v-.69h.4v-1h1v1h.84v.69Z" transform="translate(13.11)"/>
      <path class="cls-3" d="M98.08,58.28l-.42-1H95.78l-.42,1H94.29l1.94-4.49h1l1.94,4.49Zm-1.36-3.15-.57,1.3h1.12Z" transform="translate(13.11)"/>
      <path class="cls-3" d="M101.73,56.69V54.82h1v3.46h-1v-.46a1.09,1.09,0,0,1-.93.51,1.35,1.35,0,0,1-1-.36,1.37,1.37,0,0,1-.39-1.06V54.82h1v1.88q0,.8.58.8a.69.69,0,0,0,.5-.21A.81.81,0,0,0,101.73,56.69Z" transform="translate(13.11)"/>
      <path class="cls-3" d="M105,58.33a1.46,1.46,0,0,1-1.1-.52,1.83,1.83,0,0,1-.48-1.29,1.75,1.75,0,0,1,.47-1.26,1.47,1.47,0,0,1,1.1-.49,1.32,1.32,0,0,1,1,.44v-1.7h1v4.77h-1v-.46A1.25,1.25,0,0,1,105,58.33Zm-.61-1.77a1,1,0,0,0,.25.68.78.78,0,0,0,.58.27.73.73,0,0,0,.57-.27,1,1,0,0,0,.23-.69,1.05,1.05,0,0,0-.23-.7.72.72,0,0,0-.57-.28.75.75,0,0,0-.58.28A1,1,0,0,0,104.39,56.56Z" transform="translate(13.11)"/>
      <path class="cls-3" d="M108,54.38a.57.57,0,1,1,.4.16A.55.55,0,0,1,108,54.38Zm.88,3.9h-1V54.82h1Z" transform="translate(13.11)"/>
      <path class="cls-3" d="M110.92,55.52v1.55a.45.45,0,0,0,.1.31.32.32,0,0,0,.24.11.56.56,0,0,0,.46-.24l.36.67a1.39,1.39,0,0,1-.95.41,1.15,1.15,0,0,1-1.19-1.22V55.52h-.4v-.69h.4v-1h1v1h.84v.69Z" transform="translate(13.11)"/>
    </g>
    <g>
      <path class="cls-3" d="M58.48,61.5h1V66h-1l-2.14-2.81V66h-1V61.5h.94l2.2,2.89Z" transform="translate(13.11)"/>
      <path class="cls-3" d="M63.94,64.26a1.71,1.71,0,0,1-.52,1.27,1.92,1.92,0,0,1-2.61,0,1.8,1.8,0,0,1,0-2.53,1.91,1.91,0,0,1,2.61,0A1.72,1.72,0,0,1,63.94,64.26Zm-2.69,0a1,1,0,0,0,.24.69.85.85,0,0,0,1.23,0,1,1,0,0,0,.24-.69,1,1,0,0,0-.24-.69.84.84,0,0,0-1.23,0A1,1,0,0,0,61.26,64.26Z" transform="translate(13.11)"/>
      <path class="cls-3" d="M65.75,63.23v1.55a.45.45,0,0,0,.1.31.32.32,0,0,0,.24.11.56.56,0,0,0,.46-.24l.36.67A1.39,1.39,0,0,1,66,66a1.15,1.15,0,0,1-1.19-1.22V63.23h-.4v-.69h.4v-1h1v1h.84v.69Z" transform="translate(13.11)"/>
      <path class="cls-3" d="M70.42,65.49A1.93,1.93,0,0,1,69,66a1.82,1.82,0,0,1-1.3-.48,1.7,1.7,0,0,1-.51-1.3,1.68,1.68,0,0,1,.52-1.3A1.77,1.77,0,0,1,69,62.47a1.79,1.79,0,0,1,1.21.43,1.48,1.48,0,0,1,.5,1.18v.51H68.18a.69.69,0,0,0,.3.46,1,1,0,0,0,.57.18,1.11,1.11,0,0,0,.84-.34Zm-.93-2a.73.73,0,0,0-.48-.17.87.87,0,0,0-.52.17.66.66,0,0,0-.28.47h1.52A.68.68,0,0,0,69.49,63.44Z" transform="translate(13.11)"/>
      <path class="cls-3" d="M73.38,62.47a1.47,1.47,0,0,1,1.1.49A1.75,1.75,0,0,1,75,64.23a1.83,1.83,0,0,1-.48,1.29,1.46,1.46,0,0,1-1.1.52,1.25,1.25,0,0,1-1-.51V66h-1V61.22h1v1.7A1.32,1.32,0,0,1,73.38,62.47Zm-1,1.79a1,1,0,0,0,.23.69.73.73,0,0,0,.57.27.78.78,0,0,0,.58-.27,1,1,0,0,0,.25-.68,1,1,0,0,0-.24-.7.75.75,0,0,0-.58-.28.72.72,0,0,0-.58.28A1.05,1.05,0,0,0,72.34,64.26Z" transform="translate(13.11)"/>
      <path class="cls-3" d="M79.13,64.26a1.71,1.71,0,0,1-.52,1.27,1.92,1.92,0,0,1-2.61,0A1.8,1.8,0,0,1,76,63a1.91,1.91,0,0,1,2.61,0A1.72,1.72,0,0,1,79.13,64.26Zm-2.69,0a1,1,0,0,0,.24.69.85.85,0,0,0,1.23,0,1,1,0,0,0,.24-.69,1,1,0,0,0-.24-.69.84.84,0,0,0-1.23,0A1,1,0,0,0,76.44,64.26Z" transform="translate(13.11)"/>
      <path class="cls-3" d="M83.3,64.26a1.71,1.71,0,0,1-.52,1.27,1.92,1.92,0,0,1-2.61,0,1.8,1.8,0,0,1,0-2.53,1.91,1.91,0,0,1,2.61,0A1.72,1.72,0,0,1,83.3,64.26Zm-2.69,0a1,1,0,0,0,.24.69.85.85,0,0,0,1.23,0,1,1,0,0,0,.24-.69,1,1,0,0,0-.24-.69.84.84,0,0,0-1.23,0A1,1,0,0,0,80.61,64.26Z" transform="translate(13.11)"/>
      <path class="cls-3" d="M85,66H84V61.22h1v2.45L86,62.53h1.21l-1.32,1.4L87.31,66H86.17l-.88-1.32L85,65Z" transform="translate(13.11)"/>
      <path class="cls-3" d="M87.9,65.88a.57.57,0,1,1,.4.16A.55.55,0,0,1,87.9,65.88Z" transform="translate(13.11)"/>
    </g>
    <line class="cls-4" y1="44.7" x2="170.23" y2="44.7"/>
  </g>
</svg>
