<svg id="Layer_1" data-name="Layer 1" xmlns="http://www.w3.org/2000/svg" viewBox="0 0 170.23 72">
  <defs>
    <style>
      .cls-1 {
        fill: #f0efef;
      }

      .cls-2 {
        fill: #29abe2;
      }

      .cls-3 {
        fill: #231f20;
      }

      .cls-4 {
        fill: none;
        stroke: #29abe2;
      }
    </style>
  </defs>
  <title>2</title>
  <g>
    <rect class="cls-1" width="170.23" height="72"/>
    <g>
      <path class="cls-2" d="M20,54.68a.39.39,0,0,0-.14.31.36.36,0,0,0,.18.31,3.2,3.2,0,0,0,.82.27,2.3,2.3,0,0,1,1,.47,1.17,1.17,0,0,1,.35.92,1.21,1.21,0,0,1-.45,1,1.8,1.8,0,0,1-1.19.38,2.76,2.76,0,0,1-1.92-.79l.6-.73a2.13,2.13,0,0,0,1.34.64.7.7,0,0,0,.43-.12.38.38,0,0,0,.16-.32.37.37,0,0,0-.17-.32,2.17,2.17,0,0,0-.66-.24A2.87,2.87,0,0,1,19.17,56a1.14,1.14,0,0,1-.36-.94,1.16,1.16,0,0,1,.46-1,1.84,1.84,0,0,1,1.15-.35,2.76,2.76,0,0,1,.9.15,2.41,2.41,0,0,1,.78.44l-.51.73a2,2,0,0,0-1.21-.44A.6.6,0,0,0,20,54.68Z" transform="translate(13.11)"/>
      <path class="cls-2" d="M25.93,57.78a1.93,1.93,0,0,1-1.37.55,1.82,1.82,0,0,1-1.3-.48,1.7,1.7,0,0,1-.51-1.3,1.68,1.68,0,0,1,.52-1.3,1.77,1.77,0,0,1,1.24-.48,1.79,1.79,0,0,1,1.21.43,1.48,1.48,0,0,1,.5,1.18v.51H23.7a.69.69,0,0,0,.3.46,1,1,0,0,0,.57.18,1.11,1.11,0,0,0,.84-.34Zm-.93-2a.73.73,0,0,0-.48-.17.87.87,0,0,0-.52.17.66.66,0,0,0-.28.47h1.52A.68.68,0,0,0,25,55.73Z" transform="translate(13.11)"/>
      <path class="cls-2" d="M29.9,57.78a1.93,1.93,0,0,1-1.37.55,1.82,1.82,0,0,1-1.3-.48,1.7,1.7,0,0,1-.51-1.3,1.68,1.68,0,0,1,.52-1.3,1.77,1.77,0,0,1,1.24-.48,1.79,1.79,0,0,1,1.21.43,1.48,1.48,0,0,1,.5,1.18v.51H27.67a.69.69,0,0,0,.3.46,1,1,0,0,0,.57.18,1.11,1.11,0,0,0,.84-.34Zm-.93-2a.73.73,0,0,0-.48-.17.87.87,0,0,0-.52.17.66.66,0,0,0-.28.47h1.52A.68.68,0,0,0,29,55.73Z" transform="translate(13.11)"/>
      <path class="cls-2" d="M36,56.55a1.71,1.71,0,0,1-.52,1.27,1.92,1.92,0,0,1-2.61,0,1.8,1.8,0,0,1,0-2.53,1.91,1.91,0,0,1,2.61,0A1.72,1.72,0,0,1,36,56.55Zm-2.69,0a1,1,0,0,0,.24.69.85.85,0,0,0,1.23,0,1,1,0,0,0,.24-.69,1,1,0,0,0-.24-.69.84.84,0,0,0-1.23,0A1,1,0,0,0,33.35,56.55Z" transform="translate(13.11)"/>
      <path class="cls-2" d="M39,56.69V54.82h1v3.46H39v-.46a1.09,1.09,0,0,1-.93.51,1.35,1.35,0,0,1-1-.36,1.37,1.37,0,0,1-.39-1.06V54.82h1V56.7q0,.8.58.8a.69.69,0,0,0,.5-.21A.81.81,0,0,0,39,56.69Z" transform="translate(13.11)"/>
      <path class="cls-2" d="M42.67,55.67A.73.73,0,0,0,42,56a1.39,1.39,0,0,0-.21.81v1.5h-1V54.82h1v.46a1.62,1.62,0,0,1,.47-.36,1.28,1.28,0,0,1,.57-.15v.91Z" transform="translate(13.11)"/>
      <path class="cls-2" d="M49.31,55.45l-1.21,2.45h-.6l-1.21-2.45v2.83h-1V53.79h1.36l1.16,2.47L49,53.79h1.35v4.49h-1Z" transform="translate(13.11)"/>
      <path class="cls-2" d="M54.78,56.55a1.71,1.71,0,0,1-.52,1.27,1.92,1.92,0,0,1-2.61,0,1.8,1.8,0,0,1,0-2.53,1.91,1.91,0,0,1,2.61,0A1.72,1.72,0,0,1,54.78,56.55Zm-2.69,0a1,1,0,0,0,.24.69.85.85,0,0,0,1.23,0,1,1,0,0,0,.24-.69,1,1,0,0,0-.24-.69.84.84,0,0,0-1.23,0A1,1,0,0,0,52.09,56.55Z" transform="translate(13.11)"/>
      <path class="cls-2" d="M56.87,58.33a1.46,1.46,0,0,1-1.09-.52,1.83,1.83,0,0,1-.48-1.29,1.75,1.75,0,0,1,.47-1.26,1.47,1.47,0,0,1,1.1-.49,1.32,1.32,0,0,1,1,.44v-1.7h1v4.77h-1v-.46A1.25,1.25,0,0,1,56.87,58.33Zm-.61-1.77a1,1,0,0,0,.25.68.78.78,0,0,0,.58.27.73.73,0,0,0,.57-.27,1,1,0,0,0,.23-.69,1.05,1.05,0,0,0-.23-.7.72.72,0,0,0-.58-.28.75.75,0,0,0-.58.28A1,1,0,0,0,56.27,56.56Z" transform="translate(13.11)"/>
      <path class="cls-2" d="M62.76,57.78a1.93,1.93,0,0,1-1.37.55,1.82,1.82,0,0,1-1.3-.48,1.7,1.7,0,0,1-.51-1.3,1.68,1.68,0,0,1,.52-1.3,1.77,1.77,0,0,1,1.24-.48,1.79,1.79,0,0,1,1.21.43,1.48,1.48,0,0,1,.5,1.18v.51H60.52a.69.69,0,0,0,.3.46,1,1,0,0,0,.57.18,1.11,1.11,0,0,0,.84-.34Zm-.93-2a.73.73,0,0,0-.48-.17.87.87,0,0,0-.52.17.66.66,0,0,0-.28.47h1.52A.68.68,0,0,0,61.83,55.73Z" transform="translate(13.11)"/>
      <path class="cls-2" d="M64.7,58.28h-1V53.51h1Z" transform="translate(13.11)"/>
      <path class="cls-2" d="M71.42,55.45l-1.21,2.45h-.6l-1.21-2.45v2.83h-1V53.79h1.36l1.16,2.47,1.16-2.47h1.35v4.49h-1Z" transform="translate(13.11)"/>
      <path class="cls-2" d="M76.43,57.78a1.93,1.93,0,0,1-1.37.55,1.82,1.82,0,0,1-1.3-.48,1.71,1.71,0,0,1-.51-1.3,1.68,1.68,0,0,1,.52-1.3A1.77,1.77,0,0,1,75,54.76a1.79,1.79,0,0,1,1.21.43,1.48,1.48,0,0,1,.5,1.18v.51H74.19a.69.69,0,0,0,.3.46,1,1,0,0,0,.57.18,1.11,1.11,0,0,0,.83-.34Zm-.92-2a.73.73,0,0,0-.48-.17.87.87,0,0,0-.52.17.66.66,0,0,0-.28.47h1.52A.69.69,0,0,0,75.5,55.73Z" transform="translate(13.11)"/>
      <path class="cls-2" d="M78.52,55.52v1.55a.45.45,0,0,0,.1.31.32.32,0,0,0,.24.11.56.56,0,0,0,.46-.24l.36.67a1.39,1.39,0,0,1-.95.41,1.15,1.15,0,0,1-1.19-1.22V55.52h-.4v-.69h.4v-1h1v1h.84v.69Z" transform="translate(13.11)"/>
      <path class="cls-2" d="M82,55.67a.73.73,0,0,0-.64.31,1.39,1.39,0,0,0-.21.81v1.5h-1V54.82h1v.46a1.62,1.62,0,0,1,.47-.36,1.27,1.27,0,0,1,.57-.15v.91Z" transform="translate(13.11)"/>
      <path class="cls-2" d="M82.91,54.38a.57.57,0,1,1,.4.16A.54.54,0,0,1,82.91,54.38Zm.88,3.9h-1V54.82h1Z" transform="translate(13.11)"/>
      <path class="cls-2" d="M86.37,57.47a1.1,1.1,0,0,0,.87-.48l.57.64a2,2,0,0,1-1.45.69A1.87,1.87,0,0,1,85,57.84a1.81,1.81,0,0,1,0-2.58,1.84,1.84,0,0,1,1.29-.5,2,2,0,0,1,.75.15,1.92,1.92,0,0,1,.67.46l-.5.66a1.13,1.13,0,0,0-.41-.31,1.15,1.15,0,0,0-.48-.11.94.94,0,0,0-.65.25.88.88,0,0,0-.27.69.87.87,0,0,0,.27.68A.93.93,0,0,0,86.37,57.47Z" transform="translate(13.11)"/>
      <path class="cls-2" d="M91,57.2a1,1,0,0,1-.38.82,1.45,1.45,0,0,1-1,.31,2.56,2.56,0,0,1-.8-.14,2.36,2.36,0,0,1-.75-.41l.42-.6a1.85,1.85,0,0,0,1.15.42.52.52,0,0,0,.29-.07.23.23,0,0,0,.11-.2A.28.28,0,0,0,90,57.1a1.68,1.68,0,0,0-.44-.19l-.44-.15a2.44,2.44,0,0,1-.34-.19.8.8,0,0,1-.39-.72,1,1,0,0,1,.39-.78,1.57,1.57,0,0,1,1-.3,2.17,2.17,0,0,1,1.22.41l-.36.64a1.57,1.57,0,0,0-.9-.31q-.45,0-.45.24a.23.23,0,0,0,.14.21,2.83,2.83,0,0,0,.47.18l.47.16a2.4,2.4,0,0,1,.33.17A.79.79,0,0,1,91,57.2Z" transform="translate(13.11)"/>
      <path class="cls-2" d="M96.72,53.79h1v4.49h-1l-2.14-2.81v2.81h-1V53.79h.94l2.2,2.89Z" transform="translate(13.11)"/>
      <path class="cls-2" d="M102.19,56.55a1.71,1.71,0,0,1-.52,1.27,1.92,1.92,0,0,1-2.61,0,1.8,1.8,0,0,1,0-2.53,1.91,1.91,0,0,1,2.61,0A1.72,1.72,0,0,1,102.19,56.55Zm-2.69,0a1,1,0,0,0,.24.69.85.85,0,0,0,1.23,0,1,1,0,0,0,.24-.69,1,1,0,0,0-.24-.69.84.84,0,0,0-1.23,0A1,1,0,0,0,99.5,56.55Z" transform="translate(13.11)"/>
      <path class="cls-2" d="M104,55.52v1.55a.45.45,0,0,0,.1.31.32.32,0,0,0,.24.11.56.56,0,0,0,.46-.24l.36.67a1.39,1.39,0,0,1-.95.41A1.15,1.15,0,0,1,103,57.11V55.52h-.4v-.69h.4v-1h1v1h.83v.69Z" transform="translate(13.11)"/>
      <path class="cls-2" d="M108.66,57.78a1.93,1.93,0,0,1-1.37.55,1.82,1.82,0,0,1-1.3-.48,1.71,1.71,0,0,1-.51-1.3,1.68,1.68,0,0,1,.52-1.3,1.77,1.77,0,0,1,1.24-.48,1.79,1.79,0,0,1,1.21.43,1.48,1.48,0,0,1,.5,1.18v.51h-2.52a.69.69,0,0,0,.3.46,1,1,0,0,0,.57.18,1.11,1.11,0,0,0,.83-.34Zm-.92-2a.73.73,0,0,0-.48-.17.87.87,0,0,0-.52.17.66.66,0,0,0-.28.47H108A.69.69,0,0,0,107.73,55.73Z" transform="translate(13.11)"/>
      <path class="cls-2" d="M111.62,54.76a1.47,1.47,0,0,1,1.1.49,1.75,1.75,0,0,1,.47,1.26,1.83,1.83,0,0,1-.48,1.29,1.46,1.46,0,0,1-1.09.52,1.25,1.25,0,0,1-1-.51v.46h-1V53.51h1v1.7A1.32,1.32,0,0,1,111.62,54.76Zm-1,1.79a1,1,0,0,0,.23.69.73.73,0,0,0,.57.27.78.78,0,0,0,.58-.27,1,1,0,0,0,.25-.68,1,1,0,0,0-.24-.7.75.75,0,0,0-.58-.28.72.72,0,0,0-.58.28A1.05,1.05,0,0,0,110.58,56.55Z" transform="translate(13.11)"/>
      <path class="cls-2" d="M117.37,56.55a1.71,1.71,0,0,1-.52,1.27,1.92,1.92,0,0,1-2.61,0,1.8,1.8,0,0,1,0-2.53,1.91,1.91,0,0,1,2.61,0A1.72,1.72,0,0,1,117.37,56.55Zm-2.69,0a1,1,0,0,0,.24.69.85.85,0,0,0,1.23,0,1,1,0,0,0,.24-.69,1,1,0,0,0-.24-.69.84.84,0,0,0-1.23,0A1,1,0,0,0,114.68,56.55Z" transform="translate(13.11)"/>
      <path class="cls-2" d="M121.54,56.55a1.71,1.71,0,0,1-.52,1.27,1.92,1.92,0,0,1-2.61,0,1.8,1.8,0,0,1,0-2.53,1.91,1.91,0,0,1,2.61,0A1.72,1.72,0,0,1,121.54,56.55Zm-2.68,0a1,1,0,0,0,.24.69.85.85,0,0,0,1.23,0,1,1,0,0,0,.24-.69,1,1,0,0,0-.24-.69.84.84,0,0,0-1.23,0A1,1,0,0,0,118.85,56.55Z" transform="translate(13.11)"/>
      <path class="cls-2" d="M123.21,58.28h-1V53.51h1V56l1.07-1.14h1.21l-1.32,1.4,1.37,2.06h-1.14L123.53,57l-.32.33Z" transform="translate(13.11)"/>
    </g>
    <g>
      <path class="cls-3" d="M23.84,8.55h1V13h-1V11.28H22.05V13h-1V8.55h1v1.88h1.79Z" transform="translate(13.11)"/>
      <path class="cls-3" d="M29.31,11.31a1.71,1.71,0,0,1-.52,1.27,1.92,1.92,0,0,1-2.61,0,1.8,1.8,0,0,1,0-2.53,1.91,1.91,0,0,1,2.61,0A1.72,1.72,0,0,1,29.31,11.31Zm-2.69,0a1,1,0,0,0,.24.69.85.85,0,0,0,1.23,0,1,1,0,0,0,.24-.69,1,1,0,0,0-.24-.69.84.84,0,0,0-1.23,0A1,1,0,0,0,26.62,11.31Z" transform="translate(13.11)"/>
      <path class="cls-3" d="M31.76,13h-1L29.59,9.59h1l.67,2.09.67-2.09h.93l.67,2.09.67-2.09h1L34,13H33l-.64-1.88Z" transform="translate(13.11)"/>
      <path class="cls-3" d="M38.83,13.09a1.46,1.46,0,0,1-1.09-.52,1.83,1.83,0,0,1-.48-1.29A1.75,1.75,0,0,1,37.73,10a1.47,1.47,0,0,1,1.1-.49,1.32,1.32,0,0,1,1,.44V8.27h1V13h-1v-.46A1.25,1.25,0,0,1,38.83,13.09Zm-.61-1.77a1,1,0,0,0,.25.68.78.78,0,0,0,.58.27.73.73,0,0,0,.57-.27,1,1,0,0,0,.23-.69,1.05,1.05,0,0,0-.23-.7.72.72,0,0,0-.58-.28.75.75,0,0,0-.58.28A1,1,0,0,0,38.23,11.32Z" transform="translate(13.11)"/>
      <path class="cls-3" d="M45.18,11.31a1.71,1.71,0,0,1-.52,1.27,1.92,1.92,0,0,1-2.61,0A1.8,1.8,0,0,1,42,10a1.91,1.91,0,0,1,2.61,0A1.72,1.72,0,0,1,45.18,11.31Zm-2.69,0a1,1,0,0,0,.24.69A.85.85,0,0,0,44,12a1,1,0,0,0,.24-.69,1,1,0,0,0-.24-.69.84.84,0,0,0-1.23,0A1,1,0,0,0,42.5,11.31Z" transform="translate(13.11)"/>
      <path class="cls-3" d="M48.89,12.54a1.93,1.93,0,0,1-1.37.55,1.82,1.82,0,0,1-1.3-.48,1.7,1.7,0,0,1-.51-1.3,1.68,1.68,0,0,1,.52-1.3,1.77,1.77,0,0,1,1.24-.48,1.79,1.79,0,0,1,1.21.43,1.48,1.48,0,0,1,.5,1.18v.51H46.66a.69.69,0,0,0,.3.46,1,1,0,0,0,.57.18,1.11,1.11,0,0,0,.83-.34Zm-.92-2a.73.73,0,0,0-.49-.17.87.87,0,0,0-.52.17.66.66,0,0,0-.28.47H48.2A.68.68,0,0,0,48,10.49Z" transform="translate(13.11)"/>
      <path class="cls-3" d="M52.47,12a1,1,0,0,1-.38.82,1.45,1.45,0,0,1-1,.31,2.55,2.55,0,0,1-.8-.14,2.37,2.37,0,0,1-.75-.41l.42-.6a1.85,1.85,0,0,0,1.15.42.52.52,0,0,0,.3-.07.23.23,0,0,0,.11-.2.28.28,0,0,0-.15-.22,1.69,1.69,0,0,0-.44-.19l-.44-.15a2.44,2.44,0,0,1-.34-.19.8.8,0,0,1-.39-.72,1,1,0,0,1,.39-.78,1.57,1.57,0,0,1,1-.3,2.17,2.17,0,0,1,1.22.41l-.36.64a1.57,1.57,0,0,0-.9-.31q-.45,0-.45.24a.23.23,0,0,0,.14.21,2.84,2.84,0,0,0,.47.18l.47.16a2.41,2.41,0,0,1,.33.17A.79.79,0,0,1,52.47,12Z" transform="translate(13.11)"/>
      <path class="cls-3" d="M57.06,12.15a1.48,1.48,0,0,0,1.21-.58l.64.66a2.42,2.42,0,0,1-3.51.21,2.21,2.21,0,0,1-.67-1.65,2.23,2.23,0,0,1,.68-1.67,2.3,2.3,0,0,1,1.67-.67,2.37,2.37,0,0,1,1.85.84l-.62.71a1.46,1.46,0,0,0-1.18-.59,1.38,1.38,0,0,0-1,.37,1.29,1.29,0,0,0-.4,1,1.36,1.36,0,0,0,.38,1A1.25,1.25,0,0,0,57.06,12.15Z" transform="translate(13.11)"/>
      <path class="cls-3" d="M61.42,10.43a.73.73,0,0,0-.64.31,1.39,1.39,0,0,0-.21.81V13h-1V9.59h1V10A1.62,1.62,0,0,1,61,9.68a1.28,1.28,0,0,1,.57-.15v.91Z" transform="translate(13.11)"/>
      <path class="cls-3" d="M62.33,9.15a.57.57,0,1,1,.4.16A.55.55,0,0,1,62.33,9.15Zm.88,3.9h-1V9.59h1Z" transform="translate(13.11)"/>
      <path class="cls-3" d="M67.3,11.18V13h-1V11.15a1.13,1.13,0,0,0-.13-.6.45.45,0,0,0-.4-.19.69.69,0,0,0-.49.21.82.82,0,0,0-.22.61V13h-1V9.59h1V10A1.19,1.19,0,0,1,66,9.53a1,1,0,0,1,.59.19,1.26,1.26,0,0,1,.4.47,1.36,1.36,0,0,1,.54-.49,1.47,1.47,0,0,1,.68-.17,1.35,1.35,0,0,1,1,.36,1.4,1.4,0,0,1,.37,1.05V13h-1V11.15q0-.8-.58-.8a.69.69,0,0,0-.5.21A.82.82,0,0,0,67.3,11.18Z" transform="translate(13.11)"/>
      <path class="cls-3" d="M73.43,12.54a1.93,1.93,0,0,1-1.37.55,1.82,1.82,0,0,1-1.3-.48,1.71,1.71,0,0,1-.51-1.3,1.68,1.68,0,0,1,.52-1.3A1.77,1.77,0,0,1,72,9.53a1.79,1.79,0,0,1,1.21.43,1.48,1.48,0,0,1,.5,1.18v.51H71.19a.69.69,0,0,0,.3.46,1,1,0,0,0,.57.18,1.11,1.11,0,0,0,.83-.34Zm-.92-2a.73.73,0,0,0-.48-.17.87.87,0,0,0-.52.17.66.66,0,0,0-.28.47h1.52A.69.69,0,0,0,72.5,10.49Z" transform="translate(13.11)"/>
      <path class="cls-3" d="M75.5,9.45a.39.39,0,0,0-.14.31.36.36,0,0,0,.18.31,3.22,3.22,0,0,0,.82.27,2.3,2.3,0,0,1,1,.47,1.17,1.17,0,0,1,.35.92,1.21,1.21,0,0,1-.45,1,1.8,1.8,0,0,1-1.19.38,2.76,2.76,0,0,1-1.92-.79l.6-.73a2.13,2.13,0,0,0,1.34.64.7.7,0,0,0,.43-.12.38.38,0,0,0,.16-.32.38.38,0,0,0-.17-.32,2.19,2.19,0,0,0-.66-.24,2.88,2.88,0,0,1-1.15-.49,1.15,1.15,0,0,1-.36-.94,1.16,1.16,0,0,1,.46-1,1.85,1.85,0,0,1,1.15-.35,2.75,2.75,0,0,1,.9.15,2.41,2.41,0,0,1,.78.44l-.51.73a2,2,0,0,0-1.21-.44A.6.6,0,0,0,75.5,9.45Z" transform="translate(13.11)"/>
      <path class="cls-3" d="M80.11,12.24a1.1,1.1,0,0,0,.87-.48l.57.64a2,2,0,0,1-1.44.69,1.87,1.87,0,0,1-1.31-.49,1.66,1.66,0,0,1-.54-1.28A1.67,1.67,0,0,1,78.8,10a1.84,1.84,0,0,1,1.29-.5,2,2,0,0,1,.75.15,1.91,1.91,0,0,1,.67.46l-.5.66a1.19,1.19,0,0,0-.89-.42.94.94,0,0,0-.65.25.88.88,0,0,0-.27.69.87.87,0,0,0,.27.68A.93.93,0,0,0,80.11,12.24Z" transform="translate(13.11)"/>
      <path class="cls-3" d="M85.13,13h-.91v-.42a1.14,1.14,0,0,1-.92.47,1.37,1.37,0,0,1-.92-.32,1.06,1.06,0,0,1-.37-.85.9.9,0,0,1,.39-.79,1.85,1.85,0,0,1,1.05-.26h.72v0q0-.55-.58-.55a1.59,1.59,0,0,0-.53.1,1.73,1.73,0,0,0-.47.25L82.15,10a2.58,2.58,0,0,1,1.55-.5,1.6,1.6,0,0,1,1,.32,1.19,1.19,0,0,1,.4,1Zm-1-1.32v-.17h-.6q-.58,0-.58.36a.33.33,0,0,0,.14.29.66.66,0,0,0,.4.1.7.7,0,0,0,.45-.16A.51.51,0,0,0,84.16,11.72Z" transform="translate(13.11)"/>
      <path class="cls-3" d="M88,9.53a1.44,1.44,0,0,1,1.08.5,1.78,1.78,0,0,1,.47,1.27,1.82,1.82,0,0,1-.47,1.28,1.45,1.45,0,0,1-1.1.51,1.22,1.22,0,0,1-1-.51v1.7H86V9.59h1V10A1.43,1.43,0,0,1,88,9.53ZM87,11.32a1,1,0,0,0,.23.69.73.73,0,0,0,.57.27.78.78,0,0,0,.58-.27,1,1,0,0,0,.25-.68,1,1,0,0,0-.24-.7.75.75,0,0,0-.58-.28.72.72,0,0,0-.58.28A1.05,1.05,0,0,0,87,11.32Z" transform="translate(13.11)"/>
      <path class="cls-3" d="M93.28,12.54a1.93,1.93,0,0,1-1.37.55,1.82,1.82,0,0,1-1.3-.48,1.7,1.7,0,0,1-.51-1.3,1.68,1.68,0,0,1,.52-1.3,1.77,1.77,0,0,1,1.24-.48,1.79,1.79,0,0,1,1.21.43,1.48,1.48,0,0,1,.5,1.18v.51H91a.69.69,0,0,0,.29.46,1,1,0,0,0,.57.18,1.11,1.11,0,0,0,.84-.34Zm-.93-2a.73.73,0,0,0-.49-.17.87.87,0,0,0-.52.17.67.67,0,0,0-.28.47h1.52A.68.68,0,0,0,92.35,10.49Z" transform="translate(13.11)"/>
      <path class="cls-3" d="M98.94,12.54a1.93,1.93,0,0,1-1.37.55,1.82,1.82,0,0,1-1.3-.48,1.7,1.7,0,0,1-.51-1.3,1.68,1.68,0,0,1,.52-1.3,1.77,1.77,0,0,1,1.24-.48,1.79,1.79,0,0,1,1.21.43,1.48,1.48,0,0,1,.5,1.18v.51H96.71a.69.69,0,0,0,.29.46,1,1,0,0,0,.57.18A1.11,1.11,0,0,0,98.4,12Zm-.93-2a.73.73,0,0,0-.49-.17.87.87,0,0,0-.52.17.67.67,0,0,0-.28.47h1.52A.68.68,0,0,0,98,10.49Z" transform="translate(13.11)"/>
      <path class="cls-3" d="M100.8,13,99.43,9.58h1l.86,2.18.86-2.18h1L101.79,13Z" transform="translate(13.11)"/>
      <path class="cls-3" d="M106.53,13h-.91v-.42a1.14,1.14,0,0,1-.92.47,1.37,1.37,0,0,1-.92-.32,1.06,1.06,0,0,1-.37-.85.9.9,0,0,1,.39-.79,1.84,1.84,0,0,1,1.05-.26h.72v0q0-.55-.58-.55a1.59,1.59,0,0,0-.53.1,1.72,1.72,0,0,0-.47.25l-.43-.62a2.58,2.58,0,0,1,1.55-.5,1.61,1.61,0,0,1,1,.32,1.19,1.19,0,0,1,.4,1Zm-1-1.32v-.17H105q-.58,0-.58.36a.33.33,0,0,0,.14.29.66.66,0,0,0,.4.1.7.7,0,0,0,.45-.16A.51.51,0,0,0,105.56,11.72Z" transform="translate(13.11)"/>
      <path class="cls-3" d="M108.37,13h-1V8.27h1Z" transform="translate(13.11)"/>
      <path class="cls-3" d="M111.52,11.45V9.59h1V13h-1v-.46a1.09,1.09,0,0,1-.93.51,1.35,1.35,0,0,1-1-.36,1.37,1.37,0,0,1-.39-1.06V9.59h1v1.88q0,.8.58.8a.69.69,0,0,0,.5-.21A.82.82,0,0,0,111.52,11.45Z" transform="translate(13.11)"/>
      <path class="cls-3" d="M116.33,13h-.91v-.42a1.14,1.14,0,0,1-.92.47,1.37,1.37,0,0,1-.92-.32,1.06,1.06,0,0,1-.37-.85.9.9,0,0,1,.39-.79,1.85,1.85,0,0,1,1.05-.26h.72v0q0-.55-.58-.55a1.59,1.59,0,0,0-.53.1,1.73,1.73,0,0,0-.47.25l-.43-.62a2.58,2.58,0,0,1,1.55-.5,1.61,1.61,0,0,1,1,.32,1.19,1.19,0,0,1,.4,1Zm-1-1.32v-.17h-.6q-.58,0-.58.36a.33.33,0,0,0,.14.29.66.66,0,0,0,.39.1.7.7,0,0,0,.45-.16A.51.51,0,0,0,115.36,11.72Z" transform="translate(13.11)"/>
      <path class="cls-3" d="M118.32,10.28v1.55a.44.44,0,0,0,.1.31.32.32,0,0,0,.24.11.56.56,0,0,0,.46-.24l.36.67a1.39,1.39,0,0,1-.95.41,1.15,1.15,0,0,1-1.18-1.22V10.28H117V9.59h.4v-1h1v1h.83v.69Z" transform="translate(13.11)"/>
      <path class="cls-3" d="M123,12.54a1.93,1.93,0,0,1-1.37.55,1.82,1.82,0,0,1-1.3-.48,1.7,1.7,0,0,1-.51-1.3,1.68,1.68,0,0,1,.52-1.3,1.77,1.77,0,0,1,1.24-.48,1.79,1.79,0,0,1,1.21.43,1.48,1.48,0,0,1,.5,1.18v.51h-2.52a.69.69,0,0,0,.3.46,1,1,0,0,0,.57.18,1.11,1.11,0,0,0,.84-.34Zm-.93-2a.73.73,0,0,0-.48-.17.87.87,0,0,0-.52.17.66.66,0,0,0-.28.47h1.52A.68.68,0,0,0,122.07,10.49Z" transform="translate(13.11)"/>
    </g>
    <g>
      <path class="cls-3" d="M29.32,19.06v1.55a.45.45,0,0,0,.1.31.32.32,0,0,0,.24.11.56.56,0,0,0,.46-.24l.36.67a1.39,1.39,0,0,1-.95.41,1.15,1.15,0,0,1-1.19-1.22V19.06h-.4v-.69h.4v-1h1v1h.84v.69Z" transform="translate(13.11)"/>
      <path class="cls-3" d="M32,20v1.86H31V17.06h1v1.7a1.35,1.35,0,0,1,1-.44,1.22,1.22,0,0,1,.92.39,1.42,1.42,0,0,1,.37,1v2.1h-1V19.93q0-.8-.58-.8a.7.7,0,0,0-.5.21A.81.81,0,0,0,32,20Z" transform="translate(13.11)"/>
      <path class="cls-3" d="M38.09,21.32a1.93,1.93,0,0,1-1.37.55,1.82,1.82,0,0,1-1.3-.48,1.7,1.7,0,0,1-.51-1.3,1.68,1.68,0,0,1,.52-1.3,1.77,1.77,0,0,1,1.24-.48,1.79,1.79,0,0,1,1.21.43,1.48,1.48,0,0,1,.5,1.18v.51H35.86a.69.69,0,0,0,.3.46,1,1,0,0,0,.57.18,1.11,1.11,0,0,0,.83-.34Zm-.92-2a.73.73,0,0,0-.49-.17.87.87,0,0,0-.52.17.66.66,0,0,0-.28.47H37.4A.68.68,0,0,0,37.17,19.27Z" transform="translate(13.11)"/>
      <path class="cls-3" d="M43.7,21.82H42.8v-.42a1.14,1.14,0,0,1-.92.47,1.37,1.37,0,0,1-.92-.32,1.06,1.06,0,0,1-.37-.85.9.9,0,0,1,.39-.79A1.85,1.85,0,0,1,42,19.65h.72v0q0-.55-.58-.55a1.59,1.59,0,0,0-.53.1,1.73,1.73,0,0,0-.47.25l-.43-.62a2.58,2.58,0,0,1,1.55-.5,1.6,1.6,0,0,1,1,.32,1.19,1.19,0,0,1,.4,1Zm-1-1.32v-.17h-.6q-.58,0-.58.36a.33.33,0,0,0,.14.29.66.66,0,0,0,.4.1.7.7,0,0,0,.45-.16A.51.51,0,0,0,42.73,20.51Z" transform="translate(13.11)"/>
      <path class="cls-3" d="M46.24,21a1.1,1.1,0,0,0,.87-.48l.57.64a2,2,0,0,1-1.45.69,1.87,1.87,0,0,1-1.31-.49,1.81,1.81,0,0,1,0-2.58,1.84,1.84,0,0,1,1.29-.5,2,2,0,0,1,.75.15,1.92,1.92,0,0,1,.67.46l-.5.66a1.13,1.13,0,0,0-.41-.31,1.15,1.15,0,0,0-.48-.11.94.94,0,0,0-.65.25.88.88,0,0,0-.27.69.87.87,0,0,0,.27.68A.93.93,0,0,0,46.24,21Z" transform="translate(13.11)"/>
      <path class="cls-3" d="M50,21a1.1,1.1,0,0,0,.87-.48l.57.64a2,2,0,0,1-1.44.69,1.87,1.87,0,0,1-1.31-.49,1.81,1.81,0,0,1,0-2.58,1.84,1.84,0,0,1,1.29-.5,2,2,0,0,1,.75.15,1.91,1.91,0,0,1,.67.46l-.5.66a1.19,1.19,0,0,0-.89-.42.94.94,0,0,0-.65.25.88.88,0,0,0-.27.69.87.87,0,0,0,.27.68A.93.93,0,0,0,50,21Z" transform="translate(13.11)"/>
      <path class="cls-3" d="M54.29,20.23V18.37h1v3.46h-1v-.46a1.09,1.09,0,0,1-.93.51,1.35,1.35,0,0,1-1-.36A1.37,1.37,0,0,1,52,20.46V18.37h1v1.88q0,.8.58.8a.69.69,0,0,0,.5-.21A.81.81,0,0,0,54.29,20.23Z" transform="translate(13.11)"/>
      <path class="cls-3" d="M58,19.21a.73.73,0,0,0-.64.31,1.39,1.39,0,0,0-.21.81v1.5h-1V18.37h1v.46a1.62,1.62,0,0,1,.47-.36,1.27,1.27,0,0,1,.57-.15v.91Z" transform="translate(13.11)"/>
      <path class="cls-3" d="M61.71,21.82h-.91v-.42a1.14,1.14,0,0,1-.92.47,1.37,1.37,0,0,1-.92-.32,1.06,1.06,0,0,1-.37-.85.9.9,0,0,1,.39-.79A1.84,1.84,0,0,1,60,19.65h.72v0q0-.55-.58-.55a1.59,1.59,0,0,0-.53.1,1.72,1.72,0,0,0-.47.25l-.43-.62a2.58,2.58,0,0,1,1.55-.5,1.61,1.61,0,0,1,1,.32,1.19,1.19,0,0,1,.4,1Zm-1-1.32v-.17h-.6q-.58,0-.58.36a.33.33,0,0,0,.14.29.66.66,0,0,0,.4.1.7.7,0,0,0,.45-.16A.51.51,0,0,0,60.74,20.51Z" transform="translate(13.11)"/>
      <path class="cls-3" d="M64.25,21a1.1,1.1,0,0,0,.87-.48l.57.64a2,2,0,0,1-1.44.69,1.87,1.87,0,0,1-1.31-.49,1.81,1.81,0,0,1,0-2.58,1.84,1.84,0,0,1,1.29-.5,2,2,0,0,1,.75.15,1.91,1.91,0,0,1,.67.46l-.5.66a1.19,1.19,0,0,0-.89-.42.94.94,0,0,0-.65.25.88.88,0,0,0-.27.69.87.87,0,0,0,.27.68A.93.93,0,0,0,64.25,21Z" transform="translate(13.11)"/>
      <path class="cls-3" d="M66.93,23.18a1.4,1.4,0,0,1-1-.41l.44-.71a.72.72,0,0,0,.5.24.28.28,0,0,0,.23-.13.47.47,0,0,0,.1-.28q0-.15-1.34-3.52h1l.84,2.15.84-2.15h1L68,22.44a1.15,1.15,0,0,1-.44.55A1.19,1.19,0,0,1,66.93,23.18Z" transform="translate(13.11)"/>
      <path class="cls-3" d="M75.27,20.1a1.71,1.71,0,0,1-.52,1.27,1.92,1.92,0,0,1-2.61,0,1.8,1.8,0,0,1,0-2.53,1.91,1.91,0,0,1,2.61,0A1.72,1.72,0,0,1,75.27,20.1Zm-2.68,0a1,1,0,0,0,.24.69.85.85,0,0,0,1.23,0,1,1,0,0,0,.24-.69,1,1,0,0,0-.24-.69.84.84,0,0,0-1.23,0A1,1,0,0,0,72.59,20.1Z" transform="translate(13.11)"/>
      <path class="cls-3" d="M77.09,18.17v.23h.83v.69h-.83v2.73h-1V19.09h-.4V18.4h.4v-.21A1.16,1.16,0,0,1,77.31,17a1.34,1.34,0,0,1,.93.39l-.35.65a.62.62,0,0,0-.47-.24.31.31,0,0,0-.24.11A.45.45,0,0,0,77.09,18.17Z" transform="translate(13.11)"/>
      <path class="cls-3" d="M81.36,19.06v1.55a.44.44,0,0,0,.1.31.32.32,0,0,0,.24.11.56.56,0,0,0,.46-.24l.36.67a1.39,1.39,0,0,1-.95.41,1.15,1.15,0,0,1-1.18-1.22V19.06H80v-.69h.4v-1h1v1h.83v.69Z" transform="translate(13.11)"/>
      <path class="cls-3" d="M84,20v1.86H83V17.06h1v1.7a1.35,1.35,0,0,1,1-.44,1.22,1.22,0,0,1,.92.39,1.42,1.42,0,0,1,.37,1v2.1h-1V19.93q0-.8-.58-.8a.7.7,0,0,0-.5.21A.81.81,0,0,0,84,20Z" transform="translate(13.11)"/>
      <path class="cls-3" d="M90.14,21.32a1.93,1.93,0,0,1-1.37.55,1.82,1.82,0,0,1-1.3-.48,1.7,1.7,0,0,1-.51-1.3,1.68,1.68,0,0,1,.52-1.3,1.77,1.77,0,0,1,1.24-.48,1.79,1.79,0,0,1,1.21.43,1.48,1.48,0,0,1,.5,1.18v.51H87.9a.69.69,0,0,0,.3.46,1,1,0,0,0,.57.18,1.11,1.11,0,0,0,.84-.34Zm-.93-2a.73.73,0,0,0-.48-.17.87.87,0,0,0-.52.17.66.66,0,0,0-.28.47h1.52A.68.68,0,0,0,89.21,19.27Z" transform="translate(13.11)"/>
      <path class="cls-3" d="M96,20v1.86H95V19.93a1.13,1.13,0,0,0-.12-.6.45.45,0,0,0-.4-.19.69.69,0,0,0-.49.21.81.81,0,0,0-.22.61v1.86h-1V18.37h1v.39a1.19,1.19,0,0,1,.91-.45,1,1,0,0,1,.59.19,1.26,1.26,0,0,1,.4.47,1.36,1.36,0,0,1,.54-.49,1.47,1.47,0,0,1,.68-.17,1.35,1.35,0,0,1,1,.36,1.4,1.4,0,0,1,.37,1.05v2.1h-1V19.93q0-.8-.58-.8a.69.69,0,0,0-.5.21A.82.82,0,0,0,96,20Z" transform="translate(13.11)"/>
      <path class="cls-3" d="M102.58,20.1a1.71,1.71,0,0,1-.52,1.27,1.92,1.92,0,0,1-2.61,0,1.8,1.8,0,0,1,0-2.53,1.91,1.91,0,0,1,2.61,0A1.72,1.72,0,0,1,102.58,20.1Zm-2.68,0a1,1,0,0,0,.24.69.85.85,0,0,0,1.23,0,1,1,0,0,0,.24-.69,1,1,0,0,0-.24-.69.84.84,0,0,0-1.23,0A1,1,0,0,0,99.9,20.1Z" transform="translate(13.11)"/>
      <path class="cls-3" d="M104.68,21.87a1.46,1.46,0,0,1-1.1-.52,1.83,1.83,0,0,1-.48-1.29,1.75,1.75,0,0,1,.47-1.26,1.47,1.47,0,0,1,1.1-.49,1.32,1.32,0,0,1,1,.44v-1.7h1v4.77h-1v-.46A1.25,1.25,0,0,1,104.68,21.87Zm-.61-1.77a1,1,0,0,0,.25.68.78.78,0,0,0,.58.27.73.73,0,0,0,.57-.27,1,1,0,0,0,.23-.69,1.06,1.06,0,0,0-.23-.7.72.72,0,0,0-.58-.28.75.75,0,0,0-.58.28A1,1,0,0,0,104.07,20.1Z" transform="translate(13.11)"/>
      <path class="cls-3" d="M110.57,21.32a1.93,1.93,0,0,1-1.37.55,1.82,1.82,0,0,1-1.3-.48,1.7,1.7,0,0,1-.51-1.3,1.68,1.68,0,0,1,.52-1.3,1.77,1.77,0,0,1,1.24-.48,1.79,1.79,0,0,1,1.21.43,1.48,1.48,0,0,1,.5,1.18v.51h-2.52a.69.69,0,0,0,.29.46,1,1,0,0,0,.57.18,1.11,1.11,0,0,0,.84-.34Zm-.93-2a.73.73,0,0,0-.49-.17.87.87,0,0,0-.52.17.67.67,0,0,0-.28.47h1.52A.68.68,0,0,0,109.64,19.27Z" transform="translate(13.11)"/>
      <path class="cls-3" d="M112.5,21.82h-1V17.06h1Z" transform="translate(13.11)"/>
      <path class="cls-3" d="M116,20.75a1,1,0,0,1-.38.82,1.45,1.45,0,0,1-1,.31,2.56,2.56,0,0,1-.8-.14,2.36,2.36,0,0,1-.75-.41l.42-.6a1.85,1.85,0,0,0,1.15.42.52.52,0,0,0,.29-.07.23.23,0,0,0,.11-.2.28.28,0,0,0-.15-.22,1.68,1.68,0,0,0-.44-.19l-.44-.15a2.44,2.44,0,0,1-.34-.19.8.8,0,0,1-.39-.72,1,1,0,0,1,.39-.78,1.57,1.57,0,0,1,1-.3,2.17,2.17,0,0,1,1.22.41l-.36.64a1.57,1.57,0,0,0-.9-.31q-.45,0-.45.24a.23.23,0,0,0,.14.21,2.83,2.83,0,0,0,.47.18l.47.16a2.4,2.4,0,0,1,.33.17A.79.79,0,0,1,116,20.75Z" transform="translate(13.11)"/>
    </g>
    <g>
      <path class="cls-3" d="M56.9,30.66a1.46,1.46,0,0,1-1.09-.52,1.83,1.83,0,0,1-.48-1.29,1.75,1.75,0,0,1,.47-1.26,1.47,1.47,0,0,1,1.1-.49,1.32,1.32,0,0,1,1,.44v-1.7h1V30.6h-1v-.46A1.25,1.25,0,0,1,56.9,30.66Zm-.61-1.77a1,1,0,0,0,.25.68.78.78,0,0,0,.58.27.73.73,0,0,0,.57-.27,1,1,0,0,0,.23-.69,1.05,1.05,0,0,0-.23-.7.72.72,0,0,0-.58-.28.75.75,0,0,0-.58.28A1,1,0,0,0,56.29,28.88Z" transform="translate(13.11)"/>
      <path class="cls-3" d="M62.79,30.1a1.93,1.93,0,0,1-1.37.55,1.82,1.82,0,0,1-1.3-.48,1.7,1.7,0,0,1-.51-1.3,1.68,1.68,0,0,1,.52-1.3,1.77,1.77,0,0,1,1.24-.48,1.79,1.79,0,0,1,1.21.43,1.48,1.48,0,0,1,.5,1.18v.51H60.55a.69.69,0,0,0,.3.46,1,1,0,0,0,.57.18,1.11,1.11,0,0,0,.84-.34Zm-.93-2a.73.73,0,0,0-.48-.17.87.87,0,0,0-.52.17.66.66,0,0,0-.28.47h1.52A.68.68,0,0,0,61.86,28.05Z" transform="translate(13.11)"/>
      <path class="cls-3" d="M65.77,27.09a1.44,1.44,0,0,1,1.08.5,1.78,1.78,0,0,1,.47,1.27,1.82,1.82,0,0,1-.47,1.28,1.45,1.45,0,0,1-1.1.51,1.22,1.22,0,0,1-1-.51v1.7h-1v-4.7h1v.39A1.43,1.43,0,0,1,65.77,27.09Zm-1.06,1.79a1,1,0,0,0,.23.69.73.73,0,0,0,.57.27.78.78,0,0,0,.58-.27,1,1,0,0,0,.25-.68,1,1,0,0,0-.24-.7.75.75,0,0,0-.58-.28.72.72,0,0,0-.58.28A1.05,1.05,0,0,0,64.71,28.88Z" transform="translate(13.11)"/>
      <path class="cls-3" d="M69,30.6H68V25.84h1Z" transform="translate(13.11)"/>
      <path class="cls-3" d="M73.37,28.88a1.71,1.71,0,0,1-.52,1.27,1.92,1.92,0,0,1-2.61,0,1.8,1.8,0,0,1,0-2.53,1.91,1.91,0,0,1,2.61,0A1.72,1.72,0,0,1,73.37,28.88Zm-2.68,0a1,1,0,0,0,.24.69.85.85,0,0,0,1.23,0,1,1,0,0,0,.24-.69,1,1,0,0,0-.24-.69.84.84,0,0,0-1.23,0A1,1,0,0,0,70.69,28.88Z" transform="translate(13.11)"/>
      <path class="cls-3" d="M74.61,32a1.4,1.4,0,0,1-1-.41l.44-.71a.72.72,0,0,0,.5.24.28.28,0,0,0,.23-.13.47.47,0,0,0,.1-.28q0-.15-1.34-3.52h1l.84,2.15.84-2.15h1l-1.61,4.07a1.15,1.15,0,0,1-.44.55A1.19,1.19,0,0,1,74.61,32Z" transform="translate(13.11)"/>
      <path class="cls-3" d="M80.79,30.1a1.93,1.93,0,0,1-1.37.55,1.82,1.82,0,0,1-1.3-.48,1.7,1.7,0,0,1-.51-1.3,1.68,1.68,0,0,1,.52-1.3,1.77,1.77,0,0,1,1.24-.48,1.79,1.79,0,0,1,1.21.43,1.48,1.48,0,0,1,.5,1.18v.51H78.56a.69.69,0,0,0,.3.46,1,1,0,0,0,.57.18,1.11,1.11,0,0,0,.83-.34Zm-.92-2a.73.73,0,0,0-.49-.17.87.87,0,0,0-.52.17.66.66,0,0,0-.28.47H80.1A.68.68,0,0,0,79.87,28.05Z" transform="translate(13.11)"/>
      <path class="cls-3" d="M83.15,30.66a1.46,1.46,0,0,1-1.1-.52,1.83,1.83,0,0,1-.48-1.29A1.75,1.75,0,0,1,82,27.58a1.47,1.47,0,0,1,1.1-.49,1.32,1.32,0,0,1,1,.44v-1.7h1V30.6h-1v-.46A1.25,1.25,0,0,1,83.15,30.66Zm-.61-1.77a1,1,0,0,0,.25.68.78.78,0,0,0,.58.27.73.73,0,0,0,.57-.27,1,1,0,0,0,.23-.69,1.05,1.05,0,0,0-.23-.7.72.72,0,0,0-.57-.28.75.75,0,0,0-.58.28A1,1,0,0,0,82.55,28.88Z" transform="translate(13.11)"/>
      <path class="cls-3" d="M87.72,29.27h-1v-.48a.9.9,0,0,1,.07-.39,1.71,1.71,0,0,1,.29-.36l.44-.45a.51.51,0,0,0,0-.6.33.33,0,0,0-.27-.12A.34.34,0,0,0,87,27a.73.73,0,0,0-.14.38h-1a1.54,1.54,0,0,1,.47-1,1.58,1.58,0,0,1,2,0,1.14,1.14,0,0,1,.38.91.87.87,0,0,1-.06.38l-.09.18a.89.89,0,0,1-.12.16l-.13.14-.29.29a1,1,0,0,0-.18.22.58.58,0,0,0,0,.26Zm-.88,1.22a.57.57,0,1,1,.4.16A.55.55,0,0,1,86.84,30.49Z" transform="translate(13.11)"/>
    </g>
    <line class="cls-4" y1="44.7" x2="170.23" y2="44.7"/>
  </g>
</svg>
