<svg id="Layer_1" data-name="Layer 1" xmlns="http://www.w3.org/2000/svg" viewBox="0 0 170.23 72">
  <defs>
    <style>
      .cls-1 {
        fill: #f0efef;
      }

      .cls-2 {
        fill: #29abe2;
      }

      .cls-3 {
        fill: #231f20;
      }

      .cls-4 {
        fill: none;
        stroke: #29abe2;
      }
    </style>
  </defs>
  <title>3</title>
  <g>
    <rect class="cls-1" width="170.23" height="72"/>
    <g>
      <path class="cls-2" d="M30.76,53.61a.39.39,0,0,0-.14.31.36.36,0,0,0,.18.31,3.22,3.22,0,0,0,.82.27,2.3,2.3,0,0,1,1,.47,1.17,1.17,0,0,1,.35.92,1.21,1.21,0,0,1-.45,1,1.8,1.8,0,0,1-1.19.38,2.76,2.76,0,0,1-1.92-.79l.6-.73a2.13,2.13,0,0,0,1.34.64.7.7,0,0,0,.43-.12.38.38,0,0,0,.16-.32.38.38,0,0,0-.17-.32,2.18,2.18,0,0,0-.66-.24,2.88,2.88,0,0,1-1.15-.49,1.15,1.15,0,0,1-.36-.94A1.16,1.16,0,0,1,30,53a1.85,1.85,0,0,1,1.15-.35,2.75,2.75,0,0,1,.9.15,2.41,2.41,0,0,1,.78.44l-.51.73a2,2,0,0,0-1.21-.44A.6.6,0,0,0,30.76,53.61Z" transform="translate(13.12)"/>
      <path class="cls-2" d="M36.7,56.71a1.93,1.93,0,0,1-1.37.55,1.82,1.82,0,0,1-1.3-.48,1.7,1.7,0,0,1-.51-1.3,1.68,1.68,0,0,1,.52-1.3,1.77,1.77,0,0,1,1.24-.48,1.79,1.79,0,0,1,1.21.43,1.48,1.48,0,0,1,.5,1.18v.51H34.47a.69.69,0,0,0,.3.46,1,1,0,0,0,.57.18,1.11,1.11,0,0,0,.84-.34Zm-.93-2a.73.73,0,0,0-.48-.17.87.87,0,0,0-.52.17.66.66,0,0,0-.28.47H36A.68.68,0,0,0,35.78,54.66Z" transform="translate(13.12)"/>
      <path class="cls-2" d="M40.67,56.71a1.93,1.93,0,0,1-1.37.55,1.82,1.82,0,0,1-1.3-.48,1.7,1.7,0,0,1-.51-1.3,1.68,1.68,0,0,1,.52-1.3,1.77,1.77,0,0,1,1.24-.48,1.79,1.79,0,0,1,1.21.43,1.48,1.48,0,0,1,.5,1.18v.51H38.44a.69.69,0,0,0,.3.46,1,1,0,0,0,.57.18,1.11,1.11,0,0,0,.84-.34Zm-.93-2a.73.73,0,0,0-.48-.17.87.87,0,0,0-.52.17.66.66,0,0,0-.28.47H40A.68.68,0,0,0,39.75,54.66Z" transform="translate(13.12)"/>
      <path class="cls-2" d="M46.8,55.48a1.71,1.71,0,0,1-.52,1.27,1.92,1.92,0,0,1-2.61,0,1.8,1.8,0,0,1,0-2.53,1.91,1.91,0,0,1,2.61,0A1.72,1.72,0,0,1,46.8,55.48Zm-2.69,0a1,1,0,0,0,.24.69.85.85,0,0,0,1.23,0,1,1,0,0,0,.24-.69,1,1,0,0,0-.24-.69.84.84,0,0,0-1.23,0A1,1,0,0,0,44.11,55.48Z" transform="translate(13.12)"/>
      <path class="cls-2" d="M49.74,55.61V53.75h1v3.46h-1v-.46a1.09,1.09,0,0,1-.93.51,1.35,1.35,0,0,1-1-.36,1.37,1.37,0,0,1-.39-1.06V53.75h1v1.88q0,.8.58.8a.69.69,0,0,0,.5-.21A.81.81,0,0,0,49.74,55.61Z" transform="translate(13.12)"/>
      <path class="cls-2" d="M53.44,54.6a.73.73,0,0,0-.64.31,1.39,1.39,0,0,0-.21.81v1.5h-1V53.75h1v.46a1.62,1.62,0,0,1,.47-.36,1.27,1.27,0,0,1,.57-.15v.91Z" transform="translate(13.12)"/>
      <path class="cls-2" d="M58,57.21h-2V52.72H57.8a2.51,2.51,0,0,1,.79.11,1.13,1.13,0,0,1,.5.3,1.16,1.16,0,0,1,.3.78.92.92,0,0,1-.34.78l-.16.11-.16.07a1.18,1.18,0,0,1,.66.38,1,1,0,0,1,.25.71,1.21,1.21,0,0,1-.32.83A1.68,1.68,0,0,1,58,57.21Zm-1-2.67h.48a1.61,1.61,0,0,0,.62-.09.38.38,0,0,0,.2-.39.4.4,0,0,0-.19-.4,1.48,1.48,0,0,0-.63-.1h-.48Zm0,1.82h.69a1.52,1.52,0,0,0,.65-.11.42.42,0,0,0,.22-.42.4.4,0,0,0-.23-.41,2,2,0,0,0-.73-.1h-.59Z" transform="translate(13.12)"/>
      <path class="cls-2" d="M60.47,53.31a.57.57,0,1,1,.4.16A.55.55,0,0,1,60.47,53.31Zm.88,3.9h-1V53.75h1Z" transform="translate(13.12)"/>
      <path class="cls-2" d="M65.2,57.21h-.91v-.42a1.14,1.14,0,0,1-.92.47,1.37,1.37,0,0,1-.92-.32,1.06,1.06,0,0,1-.37-.85.9.9,0,0,1,.39-.79A1.85,1.85,0,0,1,63.51,55h.72v0q0-.55-.58-.55a1.59,1.59,0,0,0-.53.1,1.73,1.73,0,0,0-.47.25l-.43-.62a2.58,2.58,0,0,1,1.55-.5,1.61,1.61,0,0,1,1,.32,1.19,1.19,0,0,1,.4,1Zm-1-1.32v-.17h-.6q-.58,0-.58.36a.33.33,0,0,0,.14.29.66.66,0,0,0,.39.1.7.7,0,0,0,.45-.16A.51.51,0,0,0,64.23,55.89Z" transform="translate(13.12)"/>
      <path class="cls-2" d="M68.68,56.13a1,1,0,0,1-.38.82,1.45,1.45,0,0,1-1,.31,2.56,2.56,0,0,1-.8-.14,2.37,2.37,0,0,1-.75-.41l.42-.6a1.85,1.85,0,0,0,1.15.42.52.52,0,0,0,.3-.07.23.23,0,0,0,.11-.2.28.28,0,0,0-.15-.22,1.69,1.69,0,0,0-.44-.19l-.44-.15a2.46,2.46,0,0,1-.34-.19.8.8,0,0,1-.39-.72A1,1,0,0,1,66.4,54a1.57,1.57,0,0,1,1-.3,2.17,2.17,0,0,1,1.22.41l-.36.64a1.57,1.57,0,0,0-.9-.31q-.45,0-.45.24a.23.23,0,0,0,.14.21,2.83,2.83,0,0,0,.47.18l.47.16a2.4,2.4,0,0,1,.33.17A.79.79,0,0,1,68.68,56.13Z" transform="translate(13.12)"/>
      <path class="cls-2" d="M71.19,53.31a.57.57,0,1,1,.4.16A.55.55,0,0,1,71.19,53.31Zm.88,3.9h-1V53.75h1Z" transform="translate(13.12)"/>
      <path class="cls-2" d="M74,55.28v1.93H73V53.75h1v.39a1.35,1.35,0,0,1,1-.44,1.22,1.22,0,0,1,.92.39,1.42,1.42,0,0,1,.37,1v2.1h-1v-2q0-.8-.58-.8a.7.7,0,0,0-.5.21A.82.82,0,0,0,74,55.28Z" transform="translate(13.12)"/>
      <path class="cls-2" d="M80.95,56.32a1.48,1.48,0,0,0,1.21-.58l.64.66a2.42,2.42,0,0,1-3.51.21,2.37,2.37,0,0,1,0-3.32A2.3,2.3,0,0,1,81,52.61a2.37,2.37,0,0,1,1.85.84l-.62.71A1.46,1.46,0,0,0,81,53.57a1.38,1.38,0,0,0-1,.37,1.29,1.29,0,0,0-.4,1,1.36,1.36,0,0,0,.38,1A1.25,1.25,0,0,0,80.95,56.32Z" transform="translate(13.12)"/>
      <path class="cls-2" d="M85.31,54.6a.73.73,0,0,0-.64.31,1.39,1.39,0,0,0-.21.81v1.5h-1V53.75h1v.46a1.62,1.62,0,0,1,.47-.36,1.27,1.27,0,0,1,.57-.15v.91Z" transform="translate(13.12)"/>
      <path class="cls-2" d="M86.21,53.31a.57.57,0,1,1,.4.16A.55.55,0,0,1,86.21,53.31Zm.88,3.9h-1V53.75h1Z" transform="translate(13.12)"/>
      <path class="cls-2" d="M91.18,55.34v1.86h-1V55.32a1.13,1.13,0,0,0-.13-.6.45.45,0,0,0-.4-.19.69.69,0,0,0-.49.21.81.81,0,0,0-.22.61v1.86H88V53.75h1v.39a1.19,1.19,0,0,1,.91-.45,1,1,0,0,1,.59.19,1.26,1.26,0,0,1,.4.47,1.36,1.36,0,0,1,.54-.49,1.47,1.47,0,0,1,.68-.17,1.35,1.35,0,0,1,1,.36,1.4,1.4,0,0,1,.37,1.05v2.1h-1V55.32q0-.8-.58-.8a.69.69,0,0,0-.5.21A.82.82,0,0,0,91.18,55.34Z" transform="translate(13.12)"/>
      <path class="cls-2" d="M97.32,56.71a1.93,1.93,0,0,1-1.37.55,1.82,1.82,0,0,1-1.3-.48,1.7,1.7,0,0,1-.51-1.3,1.68,1.68,0,0,1,.52-1.3,1.77,1.77,0,0,1,1.24-.48,1.79,1.79,0,0,1,1.21.43,1.48,1.48,0,0,1,.5,1.18v.51H95.08a.69.69,0,0,0,.3.46,1,1,0,0,0,.57.18,1.11,1.11,0,0,0,.84-.34Zm-.93-2a.73.73,0,0,0-.48-.17.87.87,0,0,0-.52.17.66.66,0,0,0-.28.47h1.52A.68.68,0,0,0,96.39,54.66Z" transform="translate(13.12)"/>
      <path class="cls-2" d="M103.52,53.3a2.11,2.11,0,0,1,.64,1.63,2.21,2.21,0,0,1-.63,1.66,2.64,2.64,0,0,1-1.91.61h-1.54V52.72h1.59A2.64,2.64,0,0,1,103.52,53.3ZM102.78,56a1.32,1.32,0,0,0,.37-1,1.35,1.35,0,0,0-.37-1,1.58,1.58,0,0,0-1.13-.36h-.56v2.73h.64A1.49,1.49,0,0,0,102.78,56Z" transform="translate(13.12)"/>
      <path class="cls-2" d="M107.82,57.21h-.91v-.42a1.14,1.14,0,0,1-.92.47,1.37,1.37,0,0,1-.92-.32,1.06,1.06,0,0,1-.37-.85.9.9,0,0,1,.39-.79,1.85,1.85,0,0,1,1.05-.26h.72v0q0-.55-.58-.55a1.59,1.59,0,0,0-.53.1,1.73,1.73,0,0,0-.47.25l-.43-.62a2.58,2.58,0,0,1,1.55-.5,1.61,1.61,0,0,1,1,.32,1.19,1.19,0,0,1,.4,1Zm-1-1.32v-.17h-.6q-.58,0-.58.36a.33.33,0,0,0,.14.29.66.66,0,0,0,.39.1.7.7,0,0,0,.45-.16A.51.51,0,0,0,106.85,55.89Z" transform="translate(13.12)"/>
      <path class="cls-2" d="M109.81,54.44V56a.45.45,0,0,0,.1.31.32.32,0,0,0,.24.11.56.56,0,0,0,.46-.24l.36.67a1.39,1.39,0,0,1-.95.41A1.15,1.15,0,0,1,108.84,56V54.44h-.4v-.69h.4v-1h1v1h.84v.69Z" transform="translate(13.12)"/>
      <path class="cls-2" d="M114.42,57.21h-.91v-.42a1.14,1.14,0,0,1-.92.47,1.37,1.37,0,0,1-.92-.32,1.06,1.06,0,0,1-.37-.85.9.9,0,0,1,.39-.79,1.85,1.85,0,0,1,1.05-.26h.72v0q0-.55-.58-.55a1.59,1.59,0,0,0-.53.1,1.73,1.73,0,0,0-.47.25l-.43-.62a2.58,2.58,0,0,1,1.55-.5,1.61,1.61,0,0,1,1,.32,1.19,1.19,0,0,1,.4,1Zm-1-1.32v-.17h-.6q-.58,0-.58.36a.33.33,0,0,0,.14.29.66.66,0,0,0,.39.1.7.7,0,0,0,.45-.16A.51.51,0,0,0,113.45,55.89Z" transform="translate(13.12)"/>
    </g>
    <g>
      <path class="cls-2" d="M58.47,60.43h1v4.49h-1L56.33,62.1v2.81h-1V60.43h.94l2.2,2.89Z" transform="translate(13.12)"/>
      <path class="cls-2" d="M63.94,63.19a1.71,1.71,0,0,1-.52,1.27,1.92,1.92,0,0,1-2.61,0,1.8,1.8,0,0,1,0-2.53,1.91,1.91,0,0,1,2.61,0A1.72,1.72,0,0,1,63.94,63.19Zm-2.69,0a1,1,0,0,0,.24.69.85.85,0,0,0,1.23,0,1,1,0,0,0,.24-.69,1,1,0,0,0-.24-.69.84.84,0,0,0-1.23,0A1,1,0,0,0,61.25,63.19Z" transform="translate(13.12)"/>
      <path class="cls-2" d="M65.74,62.15V63.7a.45.45,0,0,0,.1.31.32.32,0,0,0,.24.11.56.56,0,0,0,.46-.24l.36.67A1.39,1.39,0,0,1,66,65a1.15,1.15,0,0,1-1.19-1.22V62.15h-.4v-.69h.4v-1h1v1h.84v.69Z" transform="translate(13.12)"/>
      <path class="cls-2" d="M70.41,64.41A1.93,1.93,0,0,1,69,65a1.82,1.82,0,0,1-1.3-.48,1.7,1.7,0,0,1-.51-1.3,1.68,1.68,0,0,1,.52-1.3A1.77,1.77,0,0,1,69,61.4a1.79,1.79,0,0,1,1.21.43A1.48,1.48,0,0,1,70.7,63v.51H68.18a.69.69,0,0,0,.3.46,1,1,0,0,0,.57.18,1.11,1.11,0,0,0,.84-.34Zm-.93-2A.73.73,0,0,0,69,62.2a.87.87,0,0,0-.52.17.66.66,0,0,0-.28.47h1.52A.68.68,0,0,0,69.49,62.37Z" transform="translate(13.12)"/>
      <path class="cls-2" d="M73.38,61.4a1.47,1.47,0,0,1,1.1.49,1.75,1.75,0,0,1,.47,1.26,1.83,1.83,0,0,1-.48,1.29,1.46,1.46,0,0,1-1.1.52,1.25,1.25,0,0,1-1-.51v.46h-1V60.15h1v1.7A1.32,1.32,0,0,1,73.38,61.4Zm-1,1.79a1,1,0,0,0,.23.69.73.73,0,0,0,.57.27.78.78,0,0,0,.58-.27,1,1,0,0,0,.25-.68,1,1,0,0,0-.24-.7.75.75,0,0,0-.58-.28.72.72,0,0,0-.58.28A1.05,1.05,0,0,0,72.34,63.19Z" transform="translate(13.12)"/>
      <path class="cls-2" d="M79.12,63.19a1.71,1.71,0,0,1-.52,1.27,1.92,1.92,0,0,1-2.61,0,1.8,1.8,0,0,1,0-2.53,1.91,1.91,0,0,1,2.61,0A1.72,1.72,0,0,1,79.12,63.19Zm-2.69,0a1,1,0,0,0,.24.69.85.85,0,0,0,1.23,0,1,1,0,0,0,.24-.69,1,1,0,0,0-.24-.69.84.84,0,0,0-1.23,0A1,1,0,0,0,76.44,63.19Z" transform="translate(13.12)"/>
      <path class="cls-2" d="M83.29,63.19a1.71,1.71,0,0,1-.52,1.27,1.92,1.92,0,0,1-2.61,0,1.8,1.8,0,0,1,0-2.53,1.91,1.91,0,0,1,2.61,0A1.72,1.72,0,0,1,83.29,63.19Zm-2.69,0a1,1,0,0,0,.24.69.85.85,0,0,0,1.23,0,1,1,0,0,0,.24-.69,1,1,0,0,0-.24-.69.84.84,0,0,0-1.23,0A1,1,0,0,0,80.61,63.19Z" transform="translate(13.12)"/>
      <path class="cls-2" d="M85,64.92H84V60.15h1V62.6L86,61.45h1.21l-1.32,1.4,1.37,2.06H86.16l-.88-1.32-.31.33Z" transform="translate(13.12)"/>
      <path class="cls-2" d="M87.9,64.8a.57.57,0,1,1,.4.16A.55.55,0,0,1,87.9,64.8Z" transform="translate(13.12)"/>
    </g>
    <g>
      <path class="cls-3" d="M31.24,10.56h1v4.49h-1V13.29H29.46v1.77h-1V10.56h1v1.88h1.79Z" transform="translate(13.12)"/>
      <path class="cls-3" d="M36.71,13.33a1.71,1.71,0,0,1-.52,1.27,1.92,1.92,0,0,1-2.61,0,1.8,1.8,0,0,1,0-2.53,1.91,1.91,0,0,1,2.61,0A1.72,1.72,0,0,1,36.71,13.33Zm-2.69,0a1,1,0,0,0,.24.69.85.85,0,0,0,1.23,0,1,1,0,0,0,.24-.69,1,1,0,0,0-.24-.69.84.84,0,0,0-1.23,0A1,1,0,0,0,34,13.33Z" transform="translate(13.12)"/>
      <path class="cls-3" d="M39.16,15.05h-1L37,11.6h1l.67,2.09.67-2.09h.93l.67,2.09.67-2.09h1l-1.18,3.46h-1l-.64-1.88Z" transform="translate(13.12)"/>
      <path class="cls-3" d="M46.24,15.11a1.46,1.46,0,0,1-1.1-.52,1.83,1.83,0,0,1-.48-1.29A1.75,1.75,0,0,1,45.13,12a1.47,1.47,0,0,1,1.1-.49,1.32,1.32,0,0,1,1,.44v-1.7h1v4.77h-1V14.6A1.25,1.25,0,0,1,46.24,15.11Zm-.61-1.77a1,1,0,0,0,.25.68.78.78,0,0,0,.58.27A.73.73,0,0,0,47,14a1,1,0,0,0,.23-.69,1.05,1.05,0,0,0-.23-.7.72.72,0,0,0-.57-.28.75.75,0,0,0-.58.28A1,1,0,0,0,45.63,13.33Z" transform="translate(13.12)"/>
      <path class="cls-3" d="M52.59,13.33a1.71,1.71,0,0,1-.52,1.27,1.92,1.92,0,0,1-2.61,0,1.8,1.8,0,0,1,0-2.53,1.91,1.91,0,0,1,2.61,0A1.72,1.72,0,0,1,52.59,13.33Zm-2.69,0a1,1,0,0,0,.24.69.85.85,0,0,0,1.23,0,1,1,0,0,0,.24-.69,1,1,0,0,0-.24-.69.84.84,0,0,0-1.23,0A1,1,0,0,0,49.9,13.33Z" transform="translate(13.12)"/>
      <path class="cls-3" d="M56.29,14.55a1.93,1.93,0,0,1-1.37.55,1.82,1.82,0,0,1-1.3-.48,1.7,1.7,0,0,1-.51-1.3,1.68,1.68,0,0,1,.52-1.3,1.77,1.77,0,0,1,1.24-.48,1.79,1.79,0,0,1,1.21.43,1.48,1.48,0,0,1,.5,1.18v.51H54.06a.69.69,0,0,0,.3.46,1,1,0,0,0,.57.18,1.11,1.11,0,0,0,.84-.34Zm-.93-2a.73.73,0,0,0-.48-.17.87.87,0,0,0-.52.17.66.66,0,0,0-.28.47H55.6A.68.68,0,0,0,55.37,12.5Z" transform="translate(13.12)"/>
      <path class="cls-3" d="M59.87,14a1,1,0,0,1-.38.82,1.45,1.45,0,0,1-1,.31,2.56,2.56,0,0,1-.8-.14,2.37,2.37,0,0,1-.75-.41l.42-.6a1.85,1.85,0,0,0,1.15.42.52.52,0,0,0,.3-.07.23.23,0,0,0,.11-.2.28.28,0,0,0-.15-.22,1.69,1.69,0,0,0-.44-.19l-.44-.15a2.46,2.46,0,0,1-.34-.19.8.8,0,0,1-.39-.72,1,1,0,0,1,.39-.78,1.57,1.57,0,0,1,1-.3,2.17,2.17,0,0,1,1.22.41l-.36.64a1.57,1.57,0,0,0-.9-.31q-.45,0-.45.24a.23.23,0,0,0,.14.21,2.83,2.83,0,0,0,.47.18l.47.16a2.4,2.4,0,0,1,.33.17A.79.79,0,0,1,59.87,14Z" transform="translate(13.12)"/>
      <path class="cls-3" d="M64.46,14.17a1.48,1.48,0,0,0,1.21-.58l.64.66a2.42,2.42,0,0,1-3.51.21,2.37,2.37,0,0,1,0-3.32,2.3,2.3,0,0,1,1.67-.67,2.37,2.37,0,0,1,1.85.84l-.62.71a1.46,1.46,0,0,0-1.18-.59,1.38,1.38,0,0,0-1,.37,1.29,1.29,0,0,0-.4,1,1.36,1.36,0,0,0,.38,1A1.25,1.25,0,0,0,64.46,14.17Z" transform="translate(13.12)"/>
      <path class="cls-3" d="M67.09,11.16a.57.57,0,1,1,.4.16A.55.55,0,0,1,67.09,11.16Zm.88,3.9H67V11.6h1Z" transform="translate(13.12)"/>
      <path class="cls-3" d="M69.82,15.05l-1.37-3.46h1l.86,2.18.86-2.18h1L70.8,15.05Z" transform="translate(13.12)"/>
      <path class="cls-3" d="M72.73,11.16a.57.57,0,1,1,.4.16A.55.55,0,0,1,72.73,11.16Zm.88,3.9h-1V11.6h1Z" transform="translate(13.12)"/>
      <path class="cls-3" d="M76.18,14.25a1.1,1.1,0,0,0,.87-.48l.57.64a2,2,0,0,1-1.45.69,1.87,1.87,0,0,1-1.31-.49,1.81,1.81,0,0,1,0-2.58,1.84,1.84,0,0,1,1.29-.5,2,2,0,0,1,.75.15,1.91,1.91,0,0,1,.67.46l-.5.66a1.19,1.19,0,0,0-.89-.42.94.94,0,0,0-.65.25.88.88,0,0,0-.27.69.87.87,0,0,0,.27.68A.93.93,0,0,0,76.18,14.25Z" transform="translate(13.12)"/>
      <path class="cls-3" d="M79.37,11.46a.39.39,0,0,0-.14.31.36.36,0,0,0,.18.31,3.22,3.22,0,0,0,.82.27,2.3,2.3,0,0,1,1,.47,1.17,1.17,0,0,1,.35.92,1.21,1.21,0,0,1-.45,1,1.8,1.8,0,0,1-1.19.38A2.76,2.76,0,0,1,78,14.32l.6-.73a2.13,2.13,0,0,0,1.34.64.7.7,0,0,0,.43-.12.38.38,0,0,0,.16-.32.38.38,0,0,0-.17-.32,2.18,2.18,0,0,0-.66-.24,2.88,2.88,0,0,1-1.15-.49,1.15,1.15,0,0,1-.36-.94,1.16,1.16,0,0,1,.46-1,1.85,1.85,0,0,1,1.15-.35,2.75,2.75,0,0,1,.9.15,2.41,2.41,0,0,1,.78.44l-.51.73a2,2,0,0,0-1.21-.44A.6.6,0,0,0,79.37,11.46Z" transform="translate(13.12)"/>
      <path class="cls-3" d="M84,14.25a1.1,1.1,0,0,0,.87-.48l.57.64a2,2,0,0,1-1.45.69,1.87,1.87,0,0,1-1.31-.49,1.81,1.81,0,0,1,0-2.58,1.84,1.84,0,0,1,1.29-.5,2,2,0,0,1,.75.15,1.91,1.91,0,0,1,.67.46l-.5.66a1.19,1.19,0,0,0-.89-.42.94.94,0,0,0-.65.25.88.88,0,0,0-.27.69.87.87,0,0,0,.27.68A.93.93,0,0,0,84,14.25Z" transform="translate(13.12)"/>
      <path class="cls-3" d="M89,15.05h-.91v-.42a1.14,1.14,0,0,1-.92.47,1.37,1.37,0,0,1-.92-.32,1.06,1.06,0,0,1-.37-.85.9.9,0,0,1,.39-.79,1.85,1.85,0,0,1,1.05-.26H88v0q0-.55-.58-.55a1.59,1.59,0,0,0-.53.1,1.73,1.73,0,0,0-.47.25L86,12a2.58,2.58,0,0,1,1.55-.5,1.61,1.61,0,0,1,1,.32,1.19,1.19,0,0,1,.4,1Zm-1-1.32v-.17h-.6q-.58,0-.58.36a.33.33,0,0,0,.14.29.66.66,0,0,0,.39.1.7.7,0,0,0,.45-.16A.51.51,0,0,0,88,13.74Z" transform="translate(13.12)"/>
      <path class="cls-3" d="M91.89,11.54A1.44,1.44,0,0,1,93,12a1.78,1.78,0,0,1,.47,1.27A1.82,1.82,0,0,1,93,14.59a1.46,1.46,0,0,1-1.1.51,1.22,1.22,0,0,1-1-.51v1.7h-1V11.6h1V12A1.43,1.43,0,0,1,91.89,11.54Zm-1.06,1.79a1,1,0,0,0,.23.69.73.73,0,0,0,.57.27.78.78,0,0,0,.58-.27,1,1,0,0,0,.25-.68,1,1,0,0,0-.24-.7.75.75,0,0,0-.58-.28.72.72,0,0,0-.58.28A1.05,1.05,0,0,0,90.83,13.33Z" transform="translate(13.12)"/>
      <path class="cls-3" d="M97.15,14.55a1.93,1.93,0,0,1-1.37.55,1.82,1.82,0,0,1-1.3-.48,1.7,1.7,0,0,1-.51-1.3,1.68,1.68,0,0,1,.52-1.3,1.77,1.77,0,0,1,1.24-.48,1.79,1.79,0,0,1,1.21.43,1.48,1.48,0,0,1,.5,1.18v.51H94.91a.69.69,0,0,0,.3.46,1,1,0,0,0,.57.18,1.11,1.11,0,0,0,.84-.34Zm-.93-2a.73.73,0,0,0-.48-.17.87.87,0,0,0-.52.17.66.66,0,0,0-.28.47h1.52A.68.68,0,0,0,96.22,12.5Z" transform="translate(13.12)"/>
      <path class="cls-3" d="M101,12.29v1.55a.45.45,0,0,0,.1.31.32.32,0,0,0,.24.11.56.56,0,0,0,.46-.24l.36.67a1.39,1.39,0,0,1-.95.41A1.15,1.15,0,0,1,100,13.89V12.29h-.4V11.6h.4v-1h1v1h.84v.69Z" transform="translate(13.12)"/>
      <path class="cls-3" d="M103.61,13.19v1.86h-1V10.29h1V12a1.35,1.35,0,0,1,1-.44,1.22,1.22,0,0,1,.92.39,1.42,1.42,0,0,1,.37,1v2.1h-1V13.17q0-.8-.58-.8a.7.7,0,0,0-.5.21A.81.81,0,0,0,103.61,13.19Z" transform="translate(13.12)"/>
      <path class="cls-3" d="M106.83,11.16a.57.57,0,1,1,.4.16A.55.55,0,0,1,106.83,11.16Zm.88,3.9h-1V11.6h1Z" transform="translate(13.12)"/>
      <path class="cls-3" d="M109.59,13.13v1.93h-1V11.6h1V12a1.35,1.35,0,0,1,1-.44,1.22,1.22,0,0,1,.92.39,1.42,1.42,0,0,1,.37,1v2.1h-1v-2q0-.8-.58-.8a.7.7,0,0,0-.5.21A.82.82,0,0,0,109.59,13.13Z" transform="translate(13.12)"/>
      <path class="cls-3" d="M113.7,15.05h-1V10.29h1v2.45l1.07-1.14H116L114.67,13,116,15.05h-1.14L114,13.73l-.31.33Z" transform="translate(13.12)"/>
    </g>
    <g>
      <path class="cls-3" d="M25.63,23.84h-.91v-.42a1.14,1.14,0,0,1-.92.47,1.37,1.37,0,0,1-.92-.32,1.06,1.06,0,0,1-.37-.85.9.9,0,0,1,.39-.79,1.85,1.85,0,0,1,1.05-.26h.72v0q0-.55-.58-.55a1.59,1.59,0,0,0-.53.1,1.73,1.73,0,0,0-.47.25l-.43-.62a2.58,2.58,0,0,1,1.55-.5,1.61,1.61,0,0,1,1,.32,1.19,1.19,0,0,1,.4,1Zm-1-1.32v-.17h-.6q-.58,0-.58.36a.33.33,0,0,0,.14.29.66.66,0,0,0,.39.1.7.7,0,0,0,.45-.16A.51.51,0,0,0,24.66,22.52Z" transform="translate(13.12)"/>
      <path class="cls-3" d="M28.5,20.32a1.47,1.47,0,0,1,1.1.49,1.75,1.75,0,0,1,.47,1.26,1.83,1.83,0,0,1-.48,1.29,1.46,1.46,0,0,1-1.1.52,1.25,1.25,0,0,1-1-.51v.46h-1V19.07h1v1.7A1.32,1.32,0,0,1,28.5,20.32Zm-1,1.79a1,1,0,0,0,.23.69.73.73,0,0,0,.57.27.78.78,0,0,0,.58-.27,1,1,0,0,0,.25-.68,1,1,0,0,0-.24-.7.75.75,0,0,0-.58-.28.72.72,0,0,0-.58.28A1.05,1.05,0,0,0,27.46,22.11Z" transform="translate(13.12)"/>
      <path class="cls-3" d="M34.24,22.11a1.71,1.71,0,0,1-.52,1.27,1.92,1.92,0,0,1-2.61,0,1.8,1.8,0,0,1,0-2.53,1.91,1.91,0,0,1,2.61,0A1.72,1.72,0,0,1,34.24,22.11Zm-2.69,0a1,1,0,0,0,.24.69.85.85,0,0,0,1.23,0,1,1,0,0,0,.24-.69,1,1,0,0,0-.24-.69.84.84,0,0,0-1.23,0A1,1,0,0,0,31.56,22.11Z" transform="translate(13.12)"/>
      <path class="cls-3" d="M37.18,22.24V20.38h1v3.46h-1v-.46a1.09,1.09,0,0,1-.93.51,1.35,1.35,0,0,1-1-.36,1.37,1.37,0,0,1-.39-1.06V20.38h1v1.88q0,.8.58.8a.69.69,0,0,0,.5-.21A.81.81,0,0,0,37.18,22.24Z" transform="translate(13.12)"/>
      <path class="cls-3" d="M40.22,21.07v1.55a.45.45,0,0,0,.1.31.32.32,0,0,0,.24.11A.56.56,0,0,0,41,22.8l.36.67a1.39,1.39,0,0,1-.95.41,1.15,1.15,0,0,1-1.19-1.22V21.07h-.4v-.69h.4v-1h1v1h.84v.69Z" transform="translate(13.12)"/>
      <path class="cls-3" d="M45.6,20.32a1.44,1.44,0,0,1,1.08.5,1.78,1.78,0,0,1,.47,1.27,1.82,1.82,0,0,1-.47,1.28,1.46,1.46,0,0,1-1.1.51,1.22,1.22,0,0,1-1-.51v1.7h-1v-4.7h1v.39A1.43,1.43,0,0,1,45.6,20.32Zm-1.06,1.79a1,1,0,0,0,.23.69.73.73,0,0,0,.57.27.78.78,0,0,0,.58-.27,1,1,0,0,0,.25-.68,1,1,0,0,0-.24-.7.75.75,0,0,0-.58-.28.72.72,0,0,0-.58.28A1.05,1.05,0,0,0,44.54,22.11Z" transform="translate(13.12)"/>
      <path class="cls-3" d="M49.68,21.23a.73.73,0,0,0-.64.31,1.39,1.39,0,0,0-.21.81v1.5h-1V20.38h1v.46a1.62,1.62,0,0,1,.47-.36,1.27,1.27,0,0,1,.57-.15v.91Z" transform="translate(13.12)"/>
      <path class="cls-3" d="M53.5,23.33a1.93,1.93,0,0,1-1.37.55,1.82,1.82,0,0,1-1.3-.48,1.7,1.7,0,0,1-.51-1.3,1.68,1.68,0,0,1,.52-1.3,1.77,1.77,0,0,1,1.24-.48,1.79,1.79,0,0,1,1.21.43,1.48,1.48,0,0,1,.5,1.18v.51H51.26a.69.69,0,0,0,.3.46,1,1,0,0,0,.57.18,1.11,1.11,0,0,0,.84-.34Zm-.93-2a.73.73,0,0,0-.48-.17.87.87,0,0,0-.52.17.66.66,0,0,0-.28.47h1.52A.68.68,0,0,0,52.57,21.29Z" transform="translate(13.12)"/>
      <path class="cls-3" d="M55.36,23.84,54,20.37h1l.86,2.18.86-2.18h1l-1.37,3.46Z" transform="translate(13.12)"/>
      <path class="cls-3" d="M61.18,23.33a1.93,1.93,0,0,1-1.37.55,1.82,1.82,0,0,1-1.3-.48A1.7,1.7,0,0,1,58,22.1a1.68,1.68,0,0,1,.52-1.3,1.77,1.77,0,0,1,1.24-.48,1.79,1.79,0,0,1,1.21.43,1.48,1.48,0,0,1,.5,1.18v.51H58.95a.69.69,0,0,0,.3.46,1,1,0,0,0,.57.18,1.11,1.11,0,0,0,.84-.34Zm-.93-2a.73.73,0,0,0-.48-.17.87.87,0,0,0-.52.17.66.66,0,0,0-.28.47h1.52A.68.68,0,0,0,60.26,21.29Z" transform="translate(13.12)"/>
      <path class="cls-3" d="M63.12,21.91v1.93h-1V20.38h1v.39a1.35,1.35,0,0,1,1-.44,1.22,1.22,0,0,1,.92.39,1.42,1.42,0,0,1,.37,1v2.1h-1v-2q0-.8-.58-.8a.7.7,0,0,0-.5.21A.82.82,0,0,0,63.12,21.91Z" transform="translate(13.12)"/>
      <path class="cls-3" d="M67.37,21.07v1.55a.45.45,0,0,0,.1.31.32.32,0,0,0,.24.11.56.56,0,0,0,.46-.24l.36.67a1.39,1.39,0,0,1-.95.41,1.15,1.15,0,0,1-1.19-1.22V21.07H66v-.69h.4v-1h1v1h.84v.69Z" transform="translate(13.12)"/>
      <path class="cls-3" d="M69.13,19.94a.57.57,0,1,1,.4.16A.55.55,0,0,1,69.13,19.94Zm.88,3.9H69V20.38h1Z" transform="translate(13.12)"/>
      <path class="cls-3" d="M71.88,21.91v1.93h-1V20.38h1v.39a1.35,1.35,0,0,1,1-.44,1.22,1.22,0,0,1,.92.39,1.42,1.42,0,0,1,.37,1v2.1h-1v-2q0-.8-.58-.8a.7.7,0,0,0-.5.21A.82.82,0,0,0,71.88,21.91Z" transform="translate(13.12)"/>
      <path class="cls-3" d="M77.58,23.25a1.46,1.46,0,0,1-1.13.51,1.57,1.57,0,0,1-1.14-.46,1.65,1.65,0,0,1-.47-1.23,1.73,1.73,0,0,1,.48-1.26,1.49,1.49,0,0,1,1.1-.49,1.25,1.25,0,0,1,1,.51v-.46h1v3a2,2,0,0,1-.16.82,1.42,1.42,0,0,1-.43.57,2,2,0,0,1-1.26.42,2.63,2.63,0,0,1-.79-.13,2.23,2.23,0,0,1-.7-.36l.37-.73a1.64,1.64,0,0,0,1,.36,1.25,1.25,0,0,0,.84-.26A1,1,0,0,0,77.58,23.25ZM77.45,22a.89.89,0,0,0-.23-.65.77.77,0,0,0-.57-.24.82.82,0,0,0-.59.24.86.86,0,0,0-.25.65.93.93,0,0,0,.24.66.78.78,0,0,0,.59.25.75.75,0,0,0,.58-.25A.94.94,0,0,0,77.45,22Z" transform="translate(13.12)"/>
      <path class="cls-3" d="M83,20.32a1.47,1.47,0,0,1,1.1.49,1.75,1.75,0,0,1,.47,1.26,1.83,1.83,0,0,1-.48,1.29,1.46,1.46,0,0,1-1.1.52,1.25,1.25,0,0,1-1-.51v.46H81V19.07h1v1.7A1.32,1.32,0,0,1,83,20.32Zm-1,1.79a1,1,0,0,0,.23.69.73.73,0,0,0,.57.27.78.78,0,0,0,.58-.27,1,1,0,0,0,.25-.68,1,1,0,0,0-.24-.7.75.75,0,0,0-.58-.28.72.72,0,0,0-.58.28A1.05,1.05,0,0,0,82,22.11Z" transform="translate(13.12)"/>
      <path class="cls-3" d="M85.36,19.94a.57.57,0,1,1,.4.16A.55.55,0,0,1,85.36,19.94Zm.88,3.9h-1V20.38h1Z" transform="translate(13.12)"/>
      <path class="cls-3" d="M90.1,23.84h-.91v-.42a1.14,1.14,0,0,1-.92.47,1.37,1.37,0,0,1-.92-.32,1.06,1.06,0,0,1-.37-.85.9.9,0,0,1,.39-.79,1.85,1.85,0,0,1,1.05-.26h.72v0q0-.55-.58-.55a1.59,1.59,0,0,0-.53.1,1.73,1.73,0,0,0-.47.25l-.43-.62a2.58,2.58,0,0,1,1.55-.5,1.61,1.61,0,0,1,1,.32,1.19,1.19,0,0,1,.4,1Zm-1-1.32v-.17h-.6q-.58,0-.58.36a.33.33,0,0,0,.14.29.66.66,0,0,0,.39.1.7.7,0,0,0,.45-.16A.51.51,0,0,0,89.13,22.52Z" transform="translate(13.12)"/>
      <path class="cls-3" d="M93.58,22.76a1,1,0,0,1-.38.82,1.45,1.45,0,0,1-1,.31,2.56,2.56,0,0,1-.8-.14,2.37,2.37,0,0,1-.75-.41l.42-.6a1.85,1.85,0,0,0,1.15.42.52.52,0,0,0,.3-.07.23.23,0,0,0,.11-.2.28.28,0,0,0-.15-.22,1.69,1.69,0,0,0-.44-.19l-.44-.15a2.46,2.46,0,0,1-.34-.19.8.8,0,0,1-.39-.72,1,1,0,0,1,.39-.78,1.57,1.57,0,0,1,1-.3,2.17,2.17,0,0,1,1.22.41l-.36.64a1.57,1.57,0,0,0-.9-.31q-.45,0-.45.24a.23.23,0,0,0,.14.21,2.83,2.83,0,0,0,.47.18l.47.16a2.4,2.4,0,0,1,.33.17A.79.79,0,0,1,93.58,22.76Z" transform="translate(13.12)"/>
      <path class="cls-3" d="M96.09,19.94a.57.57,0,1,1,.4.16A.55.55,0,0,1,96.09,19.94Zm.88,3.9H96V20.38h1Z" transform="translate(13.12)"/>
      <path class="cls-3" d="M98.85,21.91v1.93h-1V20.38h1v.39a1.35,1.35,0,0,1,1-.44,1.22,1.22,0,0,1,.92.39,1.42,1.42,0,0,1,.37,1v2.1h-1v-2q0-.8-.58-.8a.7.7,0,0,0-.5.21A.82.82,0,0,0,98.85,21.91Z" transform="translate(13.12)"/>
      <path class="cls-3" d="M105.35,23a1.1,1.1,0,0,0,.87-.48l.57.64a2,2,0,0,1-1.45.69,1.87,1.87,0,0,1-1.31-.49,1.81,1.81,0,0,1,0-2.58,1.84,1.84,0,0,1,1.29-.5,2,2,0,0,1,.75.15,1.91,1.91,0,0,1,.67.46l-.5.66a1.19,1.19,0,0,0-.89-.42.94.94,0,0,0-.65.25.88.88,0,0,0-.27.69.87.87,0,0,0,.27.68A.93.93,0,0,0,105.35,23Z" transform="translate(13.12)"/>
      <path class="cls-3" d="M109.24,21.23a.73.73,0,0,0-.64.31,1.39,1.39,0,0,0-.21.81v1.5h-1V20.38h1v.46a1.62,1.62,0,0,1,.47-.36,1.27,1.27,0,0,1,.57-.15v.91Z" transform="translate(13.12)"/>
      <path class="cls-3" d="M110.15,19.94a.57.57,0,1,1,.4.16A.55.55,0,0,1,110.15,19.94Zm.88,3.9h-1V20.38h1Z" transform="translate(13.12)"/>
      <path class="cls-3" d="M115.12,22v1.86h-1V21.95a1.13,1.13,0,0,0-.13-.6.45.45,0,0,0-.4-.19.69.69,0,0,0-.49.21.81.81,0,0,0-.22.61v1.86h-1V20.38h1v.39a1.19,1.19,0,0,1,.91-.45,1,1,0,0,1,.59.19,1.26,1.26,0,0,1,.4.47,1.36,1.36,0,0,1,.54-.49,1.47,1.47,0,0,1,.68-.17,1.35,1.35,0,0,1,1,.36,1.4,1.4,0,0,1,.37,1.05v2.1h-1V21.95q0-.8-.58-.8a.69.69,0,0,0-.5.21A.82.82,0,0,0,115.12,22Z" transform="translate(13.12)"/>
      <path class="cls-3" d="M121.25,23.33a1.93,1.93,0,0,1-1.37.55,1.82,1.82,0,0,1-1.3-.48,1.7,1.7,0,0,1-.51-1.3,1.68,1.68,0,0,1,.52-1.3,1.77,1.77,0,0,1,1.24-.48,1.79,1.79,0,0,1,1.21.43,1.48,1.48,0,0,1,.5,1.18v.51H119a.69.69,0,0,0,.3.46,1,1,0,0,0,.57.18,1.11,1.11,0,0,0,.84-.34Zm-.93-2a.73.73,0,0,0-.48-.17.87.87,0,0,0-.52.17.66.66,0,0,0-.28.47h1.52A.68.68,0,0,0,120.33,21.29Z" transform="translate(13.12)"/>
    </g>
    <g>
      <path class="cls-3" d="M45,32.67a1.46,1.46,0,0,1-1.1-.52,1.83,1.83,0,0,1-.48-1.29,1.75,1.75,0,0,1,.47-1.26A1.47,1.47,0,0,1,45,29.1a1.32,1.32,0,0,1,1,.44v-1.7h1v4.77h-1v-.46A1.25,1.25,0,0,1,45,32.67Zm-.61-1.77a1,1,0,0,0,.25.68.78.78,0,0,0,.58.27.73.73,0,0,0,.57-.27,1,1,0,0,0,.23-.69,1.05,1.05,0,0,0-.23-.7.72.72,0,0,0-.57-.28.75.75,0,0,0-.58.28A1,1,0,0,0,44.43,30.9Z" transform="translate(13.12)"/>
      <path class="cls-3" d="M50.87,32.62H50V32.2a1.14,1.14,0,0,1-.92.47,1.37,1.37,0,0,1-.92-.32,1.06,1.06,0,0,1-.37-.85.9.9,0,0,1,.39-.79,1.85,1.85,0,0,1,1.05-.26h.72v0q0-.55-.58-.55a1.59,1.59,0,0,0-.53.1,1.73,1.73,0,0,0-.47.25l-.43-.62a2.58,2.58,0,0,1,1.55-.5,1.61,1.61,0,0,1,1,.32,1.19,1.19,0,0,1,.4,1Zm-1-1.32v-.17h-.6q-.58,0-.58.36a.33.33,0,0,0,.14.29.66.66,0,0,0,.39.1.7.7,0,0,0,.45-.16A.51.51,0,0,0,49.9,31.3Z" transform="translate(13.12)"/>
      <path class="cls-3" d="M52.86,29.85V31.4a.45.45,0,0,0,.1.31.32.32,0,0,0,.24.11.56.56,0,0,0,.46-.24l.36.67a1.39,1.39,0,0,1-.95.41,1.15,1.15,0,0,1-1.19-1.22V29.85h-.4v-.69h.4v-1h1v1h.84v.69Z" transform="translate(13.12)"/>
      <path class="cls-3" d="M57.48,32.62h-.91V32.2a1.14,1.14,0,0,1-.92.47,1.37,1.37,0,0,1-.92-.32,1.06,1.06,0,0,1-.37-.85.9.9,0,0,1,.39-.79,1.85,1.85,0,0,1,1.05-.26h.72v0q0-.55-.58-.55a1.59,1.59,0,0,0-.53.1,1.73,1.73,0,0,0-.47.25l-.43-.62A2.58,2.58,0,0,1,56,29.1a1.61,1.61,0,0,1,1,.32,1.19,1.19,0,0,1,.4,1Zm-1-1.32v-.17h-.6q-.58,0-.58.36a.33.33,0,0,0,.14.29.66.66,0,0,0,.39.1.7.7,0,0,0,.45-.16A.51.51,0,0,0,56.51,31.3Z" transform="translate(13.12)"/>
      <path class="cls-3" d="M63,32.62h-.91V32.2a1.14,1.14,0,0,1-.92.47,1.37,1.37,0,0,1-.92-.32,1.06,1.06,0,0,1-.37-.85.9.9,0,0,1,.39-.79,1.85,1.85,0,0,1,1.05-.26H62v0q0-.55-.58-.55a1.59,1.59,0,0,0-.53.1,1.73,1.73,0,0,0-.47.25L60,29.6a2.58,2.58,0,0,1,1.55-.5,1.61,1.61,0,0,1,1,.32,1.19,1.19,0,0,1,.4,1ZM62,31.3v-.17h-.6q-.58,0-.58.36a.33.33,0,0,0,.14.29.66.66,0,0,0,.39.1.7.7,0,0,0,.45-.16A.51.51,0,0,0,62,31.3Z" transform="translate(13.12)"/>
      <path class="cls-3" d="M64.83,30.69v1.93h-1V29.16h1v.39a1.35,1.35,0,0,1,1-.44,1.22,1.22,0,0,1,.92.39,1.42,1.42,0,0,1,.37,1v2.1h-1v-2q0-.8-.58-.8a.7.7,0,0,0-.5.21A.82.82,0,0,0,64.83,30.69Z" transform="translate(13.12)"/>
      <path class="cls-3" d="M69.36,32.67a1.46,1.46,0,0,1-1.1-.52,1.83,1.83,0,0,1-.48-1.29,1.75,1.75,0,0,1,.47-1.26,1.47,1.47,0,0,1,1.1-.49,1.32,1.32,0,0,1,1,.44v-1.7h1v4.77h-1v-.46A1.25,1.25,0,0,1,69.36,32.67Zm-.61-1.77a1,1,0,0,0,.25.68.78.78,0,0,0,.58.27.73.73,0,0,0,.57-.27,1,1,0,0,0,.23-.69,1.05,1.05,0,0,0-.23-.7.72.72,0,0,0-.57-.28.75.75,0,0,0-.58.28A1,1,0,0,0,68.75,30.9Z" transform="translate(13.12)"/>
      <path class="cls-3" d="M77.12,30.75v1.86h-1V30.73a1.13,1.13,0,0,0-.13-.6.45.45,0,0,0-.4-.19.69.69,0,0,0-.49.21.81.81,0,0,0-.22.61v1.86h-1V29.16h1v.39a1.19,1.19,0,0,1,.91-.45,1,1,0,0,1,.59.19,1.26,1.26,0,0,1,.4.47,1.36,1.36,0,0,1,.54-.49A1.47,1.47,0,0,1,78,29.1a1.35,1.35,0,0,1,1,.36,1.4,1.4,0,0,1,.37,1.05v2.1h-1V30.73q0-.8-.58-.8a.69.69,0,0,0-.5.21A.82.82,0,0,0,77.12,30.75Z" transform="translate(13.12)"/>
      <path class="cls-3" d="M83.72,30.89a1.71,1.71,0,0,1-.52,1.27,1.92,1.92,0,0,1-2.61,0,1.8,1.8,0,0,1,0-2.53,1.91,1.91,0,0,1,2.61,0A1.72,1.72,0,0,1,83.72,30.89Zm-2.69,0a1,1,0,0,0,.24.69.85.85,0,0,0,1.23,0,1,1,0,0,0,.24-.69,1,1,0,0,0-.24-.69.84.84,0,0,0-1.23,0A1,1,0,0,0,81,30.89Z" transform="translate(13.12)"/>
      <path class="cls-3" d="M85.81,32.67a1.46,1.46,0,0,1-1.1-.52,1.83,1.83,0,0,1-.48-1.29,1.75,1.75,0,0,1,.47-1.26,1.47,1.47,0,0,1,1.1-.49,1.32,1.32,0,0,1,1,.44v-1.7h1v4.77h-1v-.46A1.25,1.25,0,0,1,85.81,32.67Zm-.61-1.77a1,1,0,0,0,.25.68.78.78,0,0,0,.58.27.73.73,0,0,0,.57-.27,1,1,0,0,0,.23-.69,1.05,1.05,0,0,0-.23-.7.72.72,0,0,0-.57-.28.75.75,0,0,0-.58.28A1,1,0,0,0,85.21,30.9Z" transform="translate(13.12)"/>
      <path class="cls-3" d="M91.7,32.12a1.93,1.93,0,0,1-1.37.55,1.82,1.82,0,0,1-1.3-.48,1.7,1.7,0,0,1-.51-1.3,1.68,1.68,0,0,1,.52-1.3,1.77,1.77,0,0,1,1.24-.48,1.79,1.79,0,0,1,1.21.43,1.48,1.48,0,0,1,.5,1.18v.51H89.47a.69.69,0,0,0,.3.46,1,1,0,0,0,.57.18,1.11,1.11,0,0,0,.84-.34Zm-.93-2a.73.73,0,0,0-.48-.17.87.87,0,0,0-.52.17.66.66,0,0,0-.28.47H91A.68.68,0,0,0,90.78,30.07Z" transform="translate(13.12)"/>
      <path class="cls-3" d="M93.64,32.62h-1V27.85h1Z" transform="translate(13.12)"/>
      <path class="cls-3" d="M97.16,31.54a1,1,0,0,1-.38.82,1.45,1.45,0,0,1-1,.31,2.56,2.56,0,0,1-.8-.14,2.37,2.37,0,0,1-.75-.41l.42-.6a1.85,1.85,0,0,0,1.15.42.52.52,0,0,0,.3-.07.23.23,0,0,0,.11-.2.28.28,0,0,0-.15-.22,1.69,1.69,0,0,0-.44-.19l-.44-.15a2.46,2.46,0,0,1-.34-.19.8.8,0,0,1-.39-.72,1,1,0,0,1,.39-.78,1.57,1.57,0,0,1,1-.3,2.17,2.17,0,0,1,1.22.41l-.36.64a1.57,1.57,0,0,0-.9-.31q-.45,0-.45.24a.23.23,0,0,0,.14.21,2.83,2.83,0,0,0,.47.18l.47.16a2.4,2.4,0,0,1,.33.17A.79.79,0,0,1,97.16,31.54Z" transform="translate(13.12)"/>
      <path class="cls-3" d="M99.56,31.28h-1V30.8a.9.9,0,0,1,.07-.39,1.71,1.71,0,0,1,.29-.36l.44-.45a.45.45,0,0,0,.1-.3.46.46,0,0,0-.1-.3.34.34,0,0,0-.27-.12.34.34,0,0,0-.28.14.74.74,0,0,0-.14.38h-1a1.54,1.54,0,0,1,.47-1,1.58,1.58,0,0,1,2,0,1.14,1.14,0,0,1,.38.91.87.87,0,0,1-.06.38l-.09.18a.88.88,0,0,1-.12.16l-.13.14-.29.29a1,1,0,0,0-.18.22.59.59,0,0,0,0,.26Zm-.88,1.22a.57.57,0,1,1,.4.16A.55.55,0,0,1,98.69,32.5Z" transform="translate(13.12)"/>
    </g>
    <line class="cls-4" y1="44.7" x2="170.23" y2="44.7"/>
  </g>
</svg>
