<svg id="Layer_1" data-name="Layer 1" xmlns="http://www.w3.org/2000/svg" viewBox="0 0 170.23 72">
  <defs>
    <style>
      .cls-1 {
        fill: #f0efef;
      }

      .cls-2 {
        fill: #29abe2;
      }

      .cls-3 {
        fill: #231f20;
      }

      .cls-4 {
        fill: none;
        stroke: #29abe2;
      }
    </style>
  </defs>
  <title>4</title>
  <g>
    <rect class="cls-1" width="170.23" height="72"/>
    <g>
      <path class="cls-2" d="M29.56,53.61a.39.39,0,0,0-.14.31.36.36,0,0,0,.18.31,3.22,3.22,0,0,0,.82.27,2.3,2.3,0,0,1,1,.47,1.17,1.17,0,0,1,.35.92,1.21,1.21,0,0,1-.45,1,1.8,1.8,0,0,1-1.19.38,2.76,2.76,0,0,1-1.92-.79l.6-.73a2.13,2.13,0,0,0,1.34.64.71.71,0,0,0,.43-.12.38.38,0,0,0,.16-.32.37.37,0,0,0-.17-.32,2.18,2.18,0,0,0-.66-.24,2.88,2.88,0,0,1-1.15-.49,1.14,1.14,0,0,1-.36-.94,1.16,1.16,0,0,1,.46-1A1.85,1.85,0,0,1,30,52.61a2.75,2.75,0,0,1,.9.15,2.41,2.41,0,0,1,.78.44l-.51.73A2,2,0,0,0,30,53.49.6.6,0,0,0,29.56,53.61Z" transform="translate(13.12)"/>
      <path class="cls-2" d="M35.51,56.71a1.93,1.93,0,0,1-1.37.55,1.82,1.82,0,0,1-1.3-.48,1.71,1.71,0,0,1-.51-1.3,1.68,1.68,0,0,1,.52-1.3,1.77,1.77,0,0,1,1.24-.48,1.79,1.79,0,0,1,1.21.43,1.48,1.48,0,0,1,.5,1.18v.51H33.27a.69.69,0,0,0,.3.46,1,1,0,0,0,.57.18,1.11,1.11,0,0,0,.83-.34Zm-.92-2a.73.73,0,0,0-.48-.17.87.87,0,0,0-.52.17.66.66,0,0,0-.28.47h1.52A.69.69,0,0,0,34.58,54.66Z" transform="translate(13.12)"/>
      <path class="cls-2" d="M39.48,56.71a1.93,1.93,0,0,1-1.37.55,1.82,1.82,0,0,1-1.3-.48,1.71,1.71,0,0,1-.51-1.3,1.68,1.68,0,0,1,.52-1.3,1.77,1.77,0,0,1,1.24-.48,1.79,1.79,0,0,1,1.21.43,1.48,1.48,0,0,1,.5,1.18v.51H37.24a.69.69,0,0,0,.3.46,1,1,0,0,0,.57.18,1.11,1.11,0,0,0,.83-.34Zm-.92-2a.73.73,0,0,0-.48-.17.87.87,0,0,0-.52.17.66.66,0,0,0-.28.47h1.52A.69.69,0,0,0,38.55,54.66Z" transform="translate(13.12)"/>
      <path class="cls-2" d="M45.61,55.48a1.71,1.71,0,0,1-.52,1.27,1.92,1.92,0,0,1-2.61,0,1.8,1.8,0,0,1,0-2.53,1.91,1.91,0,0,1,2.61,0A1.72,1.72,0,0,1,45.61,55.48Zm-2.69,0a1,1,0,0,0,.24.69.85.85,0,0,0,1.23,0,1,1,0,0,0,.24-.69,1,1,0,0,0-.24-.69.84.84,0,0,0-1.23,0A1,1,0,0,0,42.92,55.48Z" transform="translate(13.12)"/>
      <path class="cls-2" d="M48.55,55.61V53.75h1v3.46h-1v-.46a1.09,1.09,0,0,1-.93.51,1.35,1.35,0,0,1-1-.36,1.37,1.37,0,0,1-.39-1.06V53.75h1v1.88q0,.8.58.8a.69.69,0,0,0,.5-.21A.82.82,0,0,0,48.55,55.61Z" transform="translate(13.12)"/>
      <path class="cls-2" d="M52.25,54.6a.73.73,0,0,0-.64.31,1.39,1.39,0,0,0-.21.81v1.5h-1V53.75h1v.46a1.62,1.62,0,0,1,.47-.36,1.27,1.27,0,0,1,.57-.15v.91Z" transform="translate(13.12)"/>
      <path class="cls-2" d="M58,53.12a1.53,1.53,0,0,1,.47,1.23,1.46,1.46,0,0,1-.48,1.22,2.36,2.36,0,0,1-1.48.39h-.6v1.25h-1V52.72h1.59A2.31,2.31,0,0,1,58,53.12Zm-.74,1.77a.86.86,0,0,0,.18-.59.63.63,0,0,0-.23-.55,1.29,1.29,0,0,0-.73-.16h-.57v1.51h.67A.89.89,0,0,0,57.22,54.89Z" transform="translate(13.12)"/>
      <path class="cls-2" d="M62.53,55.48A1.71,1.71,0,0,1,62,56.74a1.92,1.92,0,0,1-2.61,0,1.8,1.8,0,0,1,0-2.53,1.91,1.91,0,0,1,2.61,0A1.72,1.72,0,0,1,62.53,55.48Zm-2.68,0a1,1,0,0,0,.24.69.85.85,0,0,0,1.23,0,1,1,0,0,0,.24-.69,1,1,0,0,0-.24-.69.84.84,0,0,0-1.23,0A1,1,0,0,0,59.84,55.48Z" transform="translate(13.12)"/>
      <path class="cls-2" d="M64.2,57.21h-1V52.44h1Z" transform="translate(13.12)"/>
      <path class="cls-2" d="M65.19,53.31a.57.57,0,1,1,.4.16A.55.55,0,0,1,65.19,53.31Zm.88,3.9h-1V53.75h1Z" transform="translate(13.12)"/>
      <path class="cls-2" d="M68.65,56.4a1.1,1.1,0,0,0,.87-.48l.57.64a2,2,0,0,1-1.45.69,1.87,1.87,0,0,1-1.31-.49,1.81,1.81,0,0,1,0-2.58,1.84,1.84,0,0,1,1.29-.5,2,2,0,0,1,.75.15,1.92,1.92,0,0,1,.67.46l-.5.66a1.19,1.19,0,0,0-.89-.42.94.94,0,0,0-.65.25.88.88,0,0,0-.27.69.87.87,0,0,0,.27.68A.93.93,0,0,0,68.65,56.4Z" transform="translate(13.12)"/>
      <path class="cls-2" d="M73.72,56.71a1.93,1.93,0,0,1-1.37.55,1.82,1.82,0,0,1-1.3-.48,1.7,1.7,0,0,1-.51-1.3,1.68,1.68,0,0,1,.52-1.3,1.77,1.77,0,0,1,1.24-.48,1.79,1.79,0,0,1,1.21.43,1.48,1.48,0,0,1,.5,1.18v.51H71.49a.69.69,0,0,0,.3.46,1,1,0,0,0,.57.18,1.11,1.11,0,0,0,.84-.34Zm-.93-2a.73.73,0,0,0-.48-.17.87.87,0,0,0-.52.17.66.66,0,0,0-.28.47H73A.68.68,0,0,0,72.8,54.66Z" transform="translate(13.12)"/>
      <path class="cls-2" d="M79.92,53.3a2.11,2.11,0,0,1,.64,1.63,2.21,2.21,0,0,1-.63,1.66,2.64,2.64,0,0,1-1.91.61H76.49V52.72h1.59A2.64,2.64,0,0,1,79.92,53.3ZM79.19,56a1.32,1.32,0,0,0,.37-1,1.35,1.35,0,0,0-.37-1,1.58,1.58,0,0,0-1.13-.36h-.56v2.73h.64A1.49,1.49,0,0,0,79.19,56Z" transform="translate(13.12)"/>
      <path class="cls-2" d="M84.33,56.71a1.93,1.93,0,0,1-1.37.55,1.82,1.82,0,0,1-1.3-.48,1.7,1.7,0,0,1-.51-1.3,1.68,1.68,0,0,1,.52-1.3,1.77,1.77,0,0,1,1.24-.48,1.79,1.79,0,0,1,1.21.43,1.48,1.48,0,0,1,.5,1.18v.51H82.09a.69.69,0,0,0,.29.46,1,1,0,0,0,.57.18,1.11,1.11,0,0,0,.84-.34Zm-.93-2a.73.73,0,0,0-.49-.17.87.87,0,0,0-.52.17.67.67,0,0,0-.28.47h1.52A.68.68,0,0,0,83.4,54.66Z" transform="translate(13.12)"/>
      <path class="cls-2" d="M87.32,53.69a1.44,1.44,0,0,1,1.08.5,1.78,1.78,0,0,1,.47,1.27,1.82,1.82,0,0,1-.47,1.28,1.46,1.46,0,0,1-1.11.51,1.22,1.22,0,0,1-1-.51v1.7h-1v-4.7h1v.39A1.43,1.43,0,0,1,87.32,53.69Zm-1.06,1.79a1,1,0,0,0,.23.69.73.73,0,0,0,.57.27.78.78,0,0,0,.58-.27,1,1,0,0,0,.25-.68,1,1,0,0,0-.24-.7.75.75,0,0,0-.58-.28.72.72,0,0,0-.58.28A1.06,1.06,0,0,0,86.25,55.48Z" transform="translate(13.12)"/>
      <path class="cls-2" d="M90.55,57.21h-1V52.44h1Z" transform="translate(13.12)"/>
      <path class="cls-2" d="M94.91,55.48a1.71,1.71,0,0,1-.52,1.27,1.92,1.92,0,0,1-2.61,0,1.8,1.8,0,0,1,0-2.53,1.91,1.91,0,0,1,2.61,0A1.72,1.72,0,0,1,94.91,55.48Zm-2.68,0a1,1,0,0,0,.24.69.85.85,0,0,0,1.23,0,1,1,0,0,0,.24-.69,1,1,0,0,0-.24-.69.84.84,0,0,0-1.23,0A1,1,0,0,0,92.23,55.48Z" transform="translate(13.12)"/>
      <path class="cls-2" d="M96.15,58.57a1.4,1.4,0,0,1-1-.41l.44-.71a.72.72,0,0,0,.5.24.28.28,0,0,0,.23-.13.46.46,0,0,0,.1-.28q0-.15-1.34-3.52h1L97,55.9l.84-2.15h1l-1.61,4.07a1.14,1.14,0,0,1-.44.55A1.18,1.18,0,0,1,96.15,58.57Z" transform="translate(13.12)"/>
      <path class="cls-2" d="M102.51,55.34v1.86h-1V55.32a1.13,1.13,0,0,0-.12-.6.45.45,0,0,0-.4-.19.69.69,0,0,0-.49.21.81.81,0,0,0-.22.61v1.86h-1V53.75h1v.39a1.19,1.19,0,0,1,.91-.45,1,1,0,0,1,.59.19,1.26,1.26,0,0,1,.4.47,1.36,1.36,0,0,1,.54-.49,1.47,1.47,0,0,1,.68-.17,1.35,1.35,0,0,1,1,.36,1.4,1.4,0,0,1,.37,1.05v2.1h-1V55.32q0-.8-.58-.8a.69.69,0,0,0-.5.21A.82.82,0,0,0,102.51,55.34Z" transform="translate(13.12)"/>
      <path class="cls-2" d="M108.65,56.71a1.93,1.93,0,0,1-1.37.55,1.82,1.82,0,0,1-1.3-.48,1.7,1.7,0,0,1-.51-1.3,1.68,1.68,0,0,1,.52-1.3,1.77,1.77,0,0,1,1.24-.48,1.79,1.79,0,0,1,1.21.43,1.48,1.48,0,0,1,.5,1.18v.51h-2.52a.69.69,0,0,0,.3.46,1,1,0,0,0,.57.18,1.11,1.11,0,0,0,.83-.34Zm-.92-2a.73.73,0,0,0-.49-.17.87.87,0,0,0-.52.17.66.66,0,0,0-.28.47H108A.68.68,0,0,0,107.72,54.66Z" transform="translate(13.12)"/>
      <path class="cls-2" d="M110.59,55.28v1.93h-1V53.75h1v.39a1.35,1.35,0,0,1,1-.44,1.22,1.22,0,0,1,.92.39,1.43,1.43,0,0,1,.37,1v2.1h-1v-2q0-.8-.58-.8a.7.7,0,0,0-.5.21A.82.82,0,0,0,110.59,55.28Z" transform="translate(13.12)"/>
      <path class="cls-2" d="M114.83,54.44V56a.45.45,0,0,0,.1.31.32.32,0,0,0,.24.11.56.56,0,0,0,.46-.24l.36.67a1.39,1.39,0,0,1-.95.41A1.15,1.15,0,0,1,113.86,56V54.44h-.4v-.69h.4v-1h1v1h.84v.69Z" transform="translate(13.12)"/>
    </g>
    <g>
      <path class="cls-2" d="M58.47,60.43h1v4.49h-1L56.33,62.1v2.81h-1V60.43h.94l2.2,2.89Z" transform="translate(13.12)"/>
      <path class="cls-2" d="M63.94,63.19a1.71,1.71,0,0,1-.52,1.27,1.92,1.92,0,0,1-2.61,0,1.8,1.8,0,0,1,0-2.53,1.91,1.91,0,0,1,2.61,0A1.72,1.72,0,0,1,63.94,63.19Zm-2.69,0a1,1,0,0,0,.24.69.85.85,0,0,0,1.23,0,1,1,0,0,0,.24-.69,1,1,0,0,0-.24-.69.84.84,0,0,0-1.23,0A1,1,0,0,0,61.25,63.19Z" transform="translate(13.12)"/>
      <path class="cls-2" d="M65.74,62.15V63.7a.45.45,0,0,0,.1.31.32.32,0,0,0,.24.11.56.56,0,0,0,.46-.24l.36.67A1.39,1.39,0,0,1,66,65a1.15,1.15,0,0,1-1.19-1.22V62.15h-.4v-.69h.4v-1h1v1h.84v.69Z" transform="translate(13.12)"/>
      <path class="cls-2" d="M70.41,64.41A1.93,1.93,0,0,1,69,65a1.82,1.82,0,0,1-1.3-.48,1.7,1.7,0,0,1-.51-1.3,1.68,1.68,0,0,1,.52-1.3A1.77,1.77,0,0,1,69,61.4a1.79,1.79,0,0,1,1.21.43A1.48,1.48,0,0,1,70.7,63v.51H68.18a.69.69,0,0,0,.29.46,1,1,0,0,0,.57.18,1.11,1.11,0,0,0,.84-.34Zm-.93-2A.73.73,0,0,0,69,62.2a.87.87,0,0,0-.52.17.67.67,0,0,0-.28.47h1.52A.68.68,0,0,0,69.49,62.37Z" transform="translate(13.12)"/>
      <path class="cls-2" d="M73.38,61.4a1.47,1.47,0,0,1,1.1.49,1.75,1.75,0,0,1,.47,1.26,1.83,1.83,0,0,1-.48,1.29,1.46,1.46,0,0,1-1.1.52,1.25,1.25,0,0,1-1-.51v.46h-1V60.15h1v1.7A1.32,1.32,0,0,1,73.38,61.4Zm-1,1.79a1,1,0,0,0,.23.69.73.73,0,0,0,.57.27.78.78,0,0,0,.58-.27,1,1,0,0,0,.25-.68,1,1,0,0,0-.24-.7.75.75,0,0,0-.58-.28.72.72,0,0,0-.58.28A1.06,1.06,0,0,0,72.34,63.19Z" transform="translate(13.12)"/>
      <path class="cls-2" d="M79.12,63.19a1.71,1.71,0,0,1-.52,1.27,1.92,1.92,0,0,1-2.61,0,1.8,1.8,0,0,1,0-2.53,1.91,1.91,0,0,1,2.61,0A1.72,1.72,0,0,1,79.12,63.19Zm-2.68,0a1,1,0,0,0,.24.69.85.85,0,0,0,1.23,0,1,1,0,0,0,.24-.69,1,1,0,0,0-.24-.69.84.84,0,0,0-1.23,0A1,1,0,0,0,76.44,63.19Z" transform="translate(13.12)"/>
      <path class="cls-2" d="M83.29,63.19a1.71,1.71,0,0,1-.52,1.27,1.92,1.92,0,0,1-2.61,0,1.8,1.8,0,0,1,0-2.53,1.91,1.91,0,0,1,2.61,0A1.72,1.72,0,0,1,83.29,63.19Zm-2.69,0a1,1,0,0,0,.24.69.85.85,0,0,0,1.23,0,1,1,0,0,0,.24-.69,1,1,0,0,0-.24-.69.84.84,0,0,0-1.23,0A1,1,0,0,0,80.61,63.19Z" transform="translate(13.12)"/>
      <path class="cls-2" d="M85,64.92H84V60.15h1V62.6L86,61.45h1.21l-1.32,1.4,1.37,2.06H86.16l-.88-1.32-.31.33Z" transform="translate(13.12)"/>
      <path class="cls-2" d="M87.9,64.8a.57.57,0,1,1,.4.16A.55.55,0,0,1,87.9,64.8Z" transform="translate(13.12)"/>
    </g>
    <g>
      <path class="cls-3" d="M28.88,10.56h1v4.49h-1V13.29H27.1v1.77h-1V10.56h1v1.88h1.79Z" transform="translate(13.12)"/>
      <path class="cls-3" d="M34.35,13.33a1.71,1.71,0,0,1-.52,1.27,1.92,1.92,0,0,1-2.61,0,1.8,1.8,0,0,1,0-2.53,1.91,1.91,0,0,1,2.61,0A1.72,1.72,0,0,1,34.35,13.33Zm-2.69,0a1,1,0,0,0,.24.69.85.85,0,0,0,1.23,0,1,1,0,0,0,.24-.69,1,1,0,0,0-.24-.69.84.84,0,0,0-1.23,0A1,1,0,0,0,31.67,13.33Z" transform="translate(13.12)"/>
      <path class="cls-3" d="M36.81,15.05h-1L34.63,11.6h1l.67,2.09L37,11.6h.93l.67,2.09.67-2.09h1l-1.18,3.46h-1l-.64-1.88Z" transform="translate(13.12)"/>
      <path class="cls-3" d="M43.88,15.11a1.46,1.46,0,0,1-1.09-.52,1.83,1.83,0,0,1-.48-1.29A1.75,1.75,0,0,1,42.77,12a1.47,1.47,0,0,1,1.1-.49,1.32,1.32,0,0,1,1,.44v-1.7h1v4.77h-1V14.6A1.25,1.25,0,0,1,43.88,15.11Zm-.61-1.77a1,1,0,0,0,.25.68.78.78,0,0,0,.58.27.73.73,0,0,0,.57-.27,1,1,0,0,0,.23-.69,1.05,1.05,0,0,0-.23-.7.72.72,0,0,0-.58-.28.75.75,0,0,0-.58.28A1,1,0,0,0,43.27,13.33Z" transform="translate(13.12)"/>
      <path class="cls-3" d="M50.23,13.33a1.71,1.71,0,0,1-.52,1.27,1.92,1.92,0,0,1-2.61,0,1.8,1.8,0,0,1,0-2.53,1.91,1.91,0,0,1,2.61,0A1.72,1.72,0,0,1,50.23,13.33Zm-2.69,0a1,1,0,0,0,.24.69A.85.85,0,0,0,49,14a1,1,0,0,0,.24-.69,1,1,0,0,0-.24-.69.84.84,0,0,0-1.23,0A1,1,0,0,0,47.54,13.33Z" transform="translate(13.12)"/>
      <path class="cls-3" d="M53.94,14.55a1.93,1.93,0,0,1-1.37.55,1.82,1.82,0,0,1-1.3-.48,1.7,1.7,0,0,1-.51-1.3,1.68,1.68,0,0,1,.52-1.3,1.77,1.77,0,0,1,1.24-.48,1.79,1.79,0,0,1,1.21.43,1.48,1.48,0,0,1,.5,1.18v.51H51.7a.69.69,0,0,0,.3.46,1,1,0,0,0,.57.18A1.11,1.11,0,0,0,53.4,14Zm-.92-2a.73.73,0,0,0-.49-.17.87.87,0,0,0-.52.17.66.66,0,0,0-.28.47h1.52A.68.68,0,0,0,53,12.5Z" transform="translate(13.12)"/>
      <path class="cls-3" d="M57.52,14a1,1,0,0,1-.38.82,1.45,1.45,0,0,1-1,.31,2.55,2.55,0,0,1-.8-.14,2.37,2.37,0,0,1-.75-.41l.42-.6a1.85,1.85,0,0,0,1.15.42.52.52,0,0,0,.3-.07.23.23,0,0,0,.11-.2.28.28,0,0,0-.15-.22,1.69,1.69,0,0,0-.44-.19l-.44-.15a2.44,2.44,0,0,1-.34-.19.8.8,0,0,1-.39-.72,1,1,0,0,1,.39-.78,1.57,1.57,0,0,1,1-.3,2.17,2.17,0,0,1,1.22.41l-.36.64a1.57,1.57,0,0,0-.9-.31q-.45,0-.45.24a.23.23,0,0,0,.14.21,2.84,2.84,0,0,0,.47.18l.47.16a2.41,2.41,0,0,1,.33.17A.79.79,0,0,1,57.52,14Z" transform="translate(13.12)"/>
      <path class="cls-3" d="M62.11,14.17a1.48,1.48,0,0,0,1.21-.58l.64.66a2.42,2.42,0,0,1-3.51.21,2.37,2.37,0,0,1,0-3.32,2.3,2.3,0,0,1,1.67-.67A2.37,2.37,0,0,1,64,11.3l-.62.71a1.46,1.46,0,0,0-1.18-.59,1.38,1.38,0,0,0-1,.37,1.29,1.29,0,0,0-.4,1,1.36,1.36,0,0,0,.38,1A1.25,1.25,0,0,0,62.11,14.17Z" transform="translate(13.12)"/>
      <path class="cls-3" d="M66.47,12.45a.73.73,0,0,0-.64.31,1.39,1.39,0,0,0-.21.81v1.5h-1V11.6h1v.46a1.62,1.62,0,0,1,.47-.36,1.28,1.28,0,0,1,.57-.15v.91Z" transform="translate(13.12)"/>
      <path class="cls-3" d="M67.37,11.16a.57.57,0,1,1,.4.16A.55.55,0,0,1,67.37,11.16Zm.88,3.9h-1V11.6h1Z" transform="translate(13.12)"/>
      <path class="cls-3" d="M72.34,13.19v1.86h-1V13.17a1.13,1.13,0,0,0-.13-.6.45.45,0,0,0-.4-.19.69.69,0,0,0-.49.21.82.82,0,0,0-.22.61v1.86h-1V11.6h1V12a1.19,1.19,0,0,1,.91-.45,1,1,0,0,1,.59.19,1.26,1.26,0,0,1,.4.47,1.36,1.36,0,0,1,.54-.49,1.47,1.47,0,0,1,.68-.17,1.35,1.35,0,0,1,1,.36A1.4,1.4,0,0,1,74.61,13v2.1h-1V13.17q0-.8-.58-.8a.69.69,0,0,0-.5.21A.82.82,0,0,0,72.34,13.19Z" transform="translate(13.12)"/>
      <path class="cls-3" d="M78.48,14.55a1.93,1.93,0,0,1-1.37.55,1.82,1.82,0,0,1-1.3-.48,1.71,1.71,0,0,1-.51-1.3,1.68,1.68,0,0,1,.52-1.3A1.77,1.77,0,0,1,77,11.54a1.79,1.79,0,0,1,1.21.43,1.48,1.48,0,0,1,.5,1.18v.51H76.24a.69.69,0,0,0,.3.46,1,1,0,0,0,.57.18,1.11,1.11,0,0,0,.83-.34Zm-.92-2a.73.73,0,0,0-.48-.17.87.87,0,0,0-.52.17.66.66,0,0,0-.28.47h1.52A.69.69,0,0,0,77.55,12.5Z" transform="translate(13.12)"/>
      <path class="cls-3" d="M80.55,11.46a.39.39,0,0,0-.14.31.36.36,0,0,0,.18.31,3.22,3.22,0,0,0,.82.27,2.3,2.3,0,0,1,1,.47,1.17,1.17,0,0,1,.35.92,1.21,1.21,0,0,1-.45,1,1.8,1.8,0,0,1-1.19.38,2.76,2.76,0,0,1-1.92-.79l.6-.73a2.13,2.13,0,0,0,1.34.64.7.7,0,0,0,.43-.12.38.38,0,0,0,.16-.32.38.38,0,0,0-.17-.32,2.19,2.19,0,0,0-.66-.24,2.88,2.88,0,0,1-1.15-.49,1.15,1.15,0,0,1-.36-.94,1.16,1.16,0,0,1,.46-1A1.85,1.85,0,0,1,81,10.46a2.75,2.75,0,0,1,.9.15,2.41,2.41,0,0,1,.78.44l-.51.73a2,2,0,0,0-1.21-.44A.6.6,0,0,0,80.55,11.46Z" transform="translate(13.12)"/>
      <path class="cls-3" d="M85.16,14.25a1.1,1.1,0,0,0,.87-.48l.57.64a2,2,0,0,1-1.44.69,1.87,1.87,0,0,1-1.31-.49,1.81,1.81,0,0,1,0-2.58,1.84,1.84,0,0,1,1.29-.5,2,2,0,0,1,.75.15,1.91,1.91,0,0,1,.67.46l-.5.66a1.19,1.19,0,0,0-.89-.42.94.94,0,0,0-.65.25.88.88,0,0,0-.27.69.87.87,0,0,0,.27.68A.93.93,0,0,0,85.16,14.25Z" transform="translate(13.12)"/>
      <path class="cls-3" d="M90.17,15.05h-.91v-.42a1.14,1.14,0,0,1-.92.47,1.37,1.37,0,0,1-.92-.32,1.06,1.06,0,0,1-.37-.85.9.9,0,0,1,.39-.79,1.85,1.85,0,0,1,1.05-.26h.72v0q0-.55-.58-.55a1.59,1.59,0,0,0-.53.1,1.73,1.73,0,0,0-.47.25L87.19,12a2.58,2.58,0,0,1,1.55-.5,1.6,1.6,0,0,1,1,.32,1.19,1.19,0,0,1,.4,1Zm-1-1.32v-.17h-.6q-.58,0-.58.36a.33.33,0,0,0,.14.29.66.66,0,0,0,.4.1.7.7,0,0,0,.45-.16A.51.51,0,0,0,89.2,13.74Z" transform="translate(13.12)"/>
      <path class="cls-3" d="M93.06,11.54a1.44,1.44,0,0,1,1.08.5,1.78,1.78,0,0,1,.47,1.27,1.82,1.82,0,0,1-.47,1.28,1.45,1.45,0,0,1-1.1.51,1.22,1.22,0,0,1-1-.51v1.7h-1V11.6h1V12A1.43,1.43,0,0,1,93.06,11.54ZM92,13.33a1,1,0,0,0,.23.69.73.73,0,0,0,.57.27.78.78,0,0,0,.58-.27,1,1,0,0,0,.25-.68,1,1,0,0,0-.24-.7.75.75,0,0,0-.58-.28.72.72,0,0,0-.58.28A1.05,1.05,0,0,0,92,13.33Z" transform="translate(13.12)"/>
      <path class="cls-3" d="M98.32,14.55a1.93,1.93,0,0,1-1.37.55,1.82,1.82,0,0,1-1.3-.48,1.7,1.7,0,0,1-.51-1.3,1.68,1.68,0,0,1,.52-1.3,1.77,1.77,0,0,1,1.24-.48,1.79,1.79,0,0,1,1.21.43,1.48,1.48,0,0,1,.5,1.18v.51H96.09a.69.69,0,0,0,.29.46,1,1,0,0,0,.57.18,1.11,1.11,0,0,0,.84-.34Zm-.93-2a.73.73,0,0,0-.49-.17.87.87,0,0,0-.52.17.67.67,0,0,0-.28.47h1.52A.68.68,0,0,0,97.4,12.5Z" transform="translate(13.12)"/>
      <path class="cls-3" d="M104.17,13.19v1.86h-1V13.17a1.13,1.13,0,0,0-.13-.6.45.45,0,0,0-.4-.19.69.69,0,0,0-.49.21.82.82,0,0,0-.22.61v1.86h-1V11.6h1V12a1.19,1.19,0,0,1,.91-.45,1,1,0,0,1,.59.19,1.26,1.26,0,0,1,.4.47,1.36,1.36,0,0,1,.54-.49,1.47,1.47,0,0,1,.68-.17,1.35,1.35,0,0,1,1,.36,1.4,1.4,0,0,1,.37,1.05v2.1h-1V13.17q0-.8-.58-.8a.69.69,0,0,0-.5.21A.82.82,0,0,0,104.17,13.19Z" transform="translate(13.12)"/>
      <path class="cls-3" d="M110.25,15.05h-.91v-.42a1.14,1.14,0,0,1-.92.47,1.37,1.37,0,0,1-.92-.32,1.06,1.06,0,0,1-.37-.85.9.9,0,0,1,.39-.79,1.84,1.84,0,0,1,1.05-.26h.72v0q0-.55-.58-.55a1.59,1.59,0,0,0-.53.1,1.72,1.72,0,0,0-.47.25l-.43-.62a2.58,2.58,0,0,1,1.55-.5,1.61,1.61,0,0,1,1,.32,1.19,1.19,0,0,1,.4,1Zm-1-1.32v-.17h-.6q-.58,0-.58.36a.33.33,0,0,0,.14.29.66.66,0,0,0,.4.1.7.7,0,0,0,.45-.16A.51.51,0,0,0,109.28,13.74Z" transform="translate(13.12)"/>
      <path class="cls-3" d="M112.09,15.05h-1V10.29h1v2.45l1.07-1.14h1.21L113.06,13l1.37,2.06h-1.14l-.88-1.32-.32.33Z" transform="translate(13.12)"/>
      <path class="cls-3" d="M117.94,14.55a1.93,1.93,0,0,1-1.37.55,1.82,1.82,0,0,1-1.3-.48,1.71,1.71,0,0,1-.51-1.3,1.68,1.68,0,0,1,.52-1.3,1.77,1.77,0,0,1,1.24-.48,1.79,1.79,0,0,1,1.21.43,1.48,1.48,0,0,1,.5,1.18v.51h-2.52a.69.69,0,0,0,.3.46,1,1,0,0,0,.57.18,1.11,1.11,0,0,0,.83-.34Zm-.92-2a.73.73,0,0,0-.48-.17.87.87,0,0,0-.52.17.66.66,0,0,0-.28.47h1.52A.69.69,0,0,0,117,12.5Z" transform="translate(13.12)"/>
    </g>
    <path class="cls-3" d="M37.82,20.76a1.43,1.43,0,0,1,2.12.06,1.78,1.78,0,0,1,.47,1.27,1.82,1.82,0,0,1-.47,1.28,1.46,1.46,0,0,1-1.1.51,1.22,1.22,0,0,1-1-.51v1.7h-1v-4.7h1v.39Zm0,1.35a1,1,0,0,0,.23.69.73.73,0,0,0,.57.27.78.78,0,0,0,.58-.27,1,1,0,0,0,.25-.68,1,1,0,0,0-.24-.7.75.75,0,0,0-.58-.28.72.72,0,0,0-.57.28A1.05,1.05,0,0,0,37.81,22.11Zm6.78,0a1.71,1.71,0,0,1-.52,1.27,1.92,1.92,0,0,1-2.61,0,1.8,1.8,0,0,1,0-2.53,1.91,1.91,0,0,1,2.61,0A1.72,1.72,0,0,1,44.59,22.11Zm-2.69,0a1,1,0,0,0,.24.69.85.85,0,0,0,1.23,0,1,1,0,0,0,.24-.69,1,1,0,0,0-.24-.69.84.84,0,0,0-1.23,0A1,1,0,0,0,41.91,22.11Zm4.36,1.73h-1V19.07h1Zm1-3.9a.57.57,0,1,1,.4.16A.55.55,0,0,1,47.26,19.94Zm.88,3.9h-1V20.38h1Zm2.57-.8a1.1,1.1,0,0,0,.87-.48l.57.64a2,2,0,0,1-1.45.69,1.87,1.87,0,0,1-1.31-.49,1.81,1.81,0,0,1,0-2.58,1.84,1.84,0,0,1,1.29-.5,2,2,0,0,1,.75.15,1.91,1.91,0,0,1,.67.46l-.5.66a1.19,1.19,0,0,0-.89-.42.94.94,0,0,0-.65.25.88.88,0,0,0-.27.69.87.87,0,0,0,.27.68A.93.93,0,0,0,50.71,23Zm5.07.3a1.93,1.93,0,0,1-1.37.55,1.82,1.82,0,0,1-1.3-.48,1.7,1.7,0,0,1-.51-1.3,1.68,1.68,0,0,1,.52-1.3,1.77,1.77,0,0,1,1.24-.48,1.79,1.79,0,0,1,1.21.43,1.48,1.48,0,0,1,.5,1.18v.51H53.55a.69.69,0,0,0,.3.46,1,1,0,0,0,.57.18,1.11,1.11,0,0,0,.84-.34Zm-.69-1.57a.68.68,0,0,0-.23-.48.73.73,0,0,0-.48-.17.87.87,0,0,0-.52.17.66.66,0,0,0-.28.47Zm6.54.21v1.86h-1V21.95a1.13,1.13,0,0,0-.13-.6.45.45,0,0,0-.4-.19.69.69,0,0,0-.49.21.82.82,0,0,0-.22.61v1.86h-1V20.38h1v.39a1.19,1.19,0,0,1,.91-.45,1,1,0,0,1,.59.19,1.25,1.25,0,0,1,.4.47,1.36,1.36,0,0,1,.54-.49,1.47,1.47,0,0,1,.68-.17,1.35,1.35,0,0,1,1,.36,1.4,1.4,0,0,1,.37,1.05v2.1h-1V21.95q0-.8-.58-.8a.69.69,0,0,0-.5.21A.82.82,0,0,0,61.63,22Zm6.6.13a1.71,1.71,0,0,1-.52,1.27,1.92,1.92,0,0,1-2.61,0,1.8,1.8,0,0,1,0-2.53,1.91,1.91,0,0,1,2.61,0A1.72,1.72,0,0,1,68.23,22.11Zm-2.69,0a1,1,0,0,0,.24.69.85.85,0,0,0,1.23,0,1,1,0,0,0,.24-.69,1,1,0,0,0-.24-.69.84.84,0,0,0-1.23,0A1,1,0,0,0,65.54,22.11Zm5.22-.88a.73.73,0,0,0-.64.31,1.39,1.39,0,0,0-.21.81v1.5h-1V20.38h1v.46a1.62,1.62,0,0,1,.47-.36,1.27,1.27,0,0,1,.57-.15v.91Zm3.82,2.11a1.93,1.93,0,0,1-1.37.55,1.82,1.82,0,0,1-1.3-.48,1.7,1.7,0,0,1-.51-1.3,1.68,1.68,0,0,1,.52-1.3,1.77,1.77,0,0,1,1.24-.48,1.79,1.79,0,0,1,1.21.43,1.48,1.48,0,0,1,.5,1.18v.51H72.34a.69.69,0,0,0,.3.46,1,1,0,0,0,.57.18,1.11,1.11,0,0,0,.84-.34Zm-.69-1.57a.68.68,0,0,0-.23-.48.73.73,0,0,0-.48-.17.87.87,0,0,0-.52.17.66.66,0,0,0-.28.47Zm6.36,1.57a1.93,1.93,0,0,1-1.37.55,1.82,1.82,0,0,1-1.3-.48,1.7,1.7,0,0,1-.51-1.3,1.68,1.68,0,0,1,.52-1.3,1.77,1.77,0,0,1,1.24-.48,1.79,1.79,0,0,1,1.21.43,1.48,1.48,0,0,1,.5,1.18v.51H78a.69.69,0,0,0,.3.46,1,1,0,0,0,.57.18,1.11,1.11,0,0,0,.84-.34Zm-.69-1.57a.68.68,0,0,0-.23-.48.73.73,0,0,0-.48-.17.87.87,0,0,0-.52.17.66.66,0,0,0-.28.47Zm2.79-1.58v.23h.84v.69h-.84v2.73h-1V21.11H81v-.69h.4V20.2A1.16,1.16,0,0,1,82.56,19a1.34,1.34,0,0,1,.93.39l-.35.65a.62.62,0,0,0-.47-.24.32.32,0,0,0-.24.11A.45.45,0,0,0,82.34,20.18Zm2.58,0v.23h.84v.69h-.84v2.73h-1V21.11h-.4v-.69h.4V20.2A1.16,1.16,0,0,1,85.15,19a1.34,1.34,0,0,1,.93.39l-.35.65a.62.62,0,0,0-.47-.24.32.32,0,0,0-.24.11A.45.45,0,0,0,84.92,20.18Zm1.51-.24a.57.57,0,1,1,.4.16A.55.55,0,0,1,86.43,19.94Zm.88,3.9h-1V20.38h1Zm2.57-.8a1.1,1.1,0,0,0,.87-.48l.57.64a2,2,0,0,1-1.45.69,1.87,1.87,0,0,1-1.31-.49,1.81,1.81,0,0,1,0-2.58,1.84,1.84,0,0,1,1.29-.5,2,2,0,0,1,.75.15,1.91,1.91,0,0,1,.67.46l-.5.66a1.14,1.14,0,0,0-.41-.31,1.15,1.15,0,0,0-.48-.11.94.94,0,0,0-.65.25.88.88,0,0,0-.27.69.87.87,0,0,0,.27.68A.93.93,0,0,0,89.88,23ZM92,19.94a.57.57,0,1,1,.4.16A.55.55,0,0,1,92,19.94Zm.88,3.9H92V20.38h1Zm3.91-.5a1.93,1.93,0,0,1-1.37.55,1.82,1.82,0,0,1-1.3-.48,1.7,1.7,0,0,1-.51-1.3,1.68,1.68,0,0,1,.52-1.3,1.77,1.77,0,0,1,1.24-.48,1.79,1.79,0,0,1,1.21.43,1.48,1.48,0,0,1,.5,1.18v.51H94.6a.69.69,0,0,0,.3.46,1,1,0,0,0,.57.18,1.11,1.11,0,0,0,.84-.34Zm-.69-1.57a.68.68,0,0,0-.23-.48.73.73,0,0,0-.48-.17.87.87,0,0,0-.52.17.66.66,0,0,0-.28.47Zm2.63.15v1.93h-1V20.38h1v.39a1.35,1.35,0,0,1,1-.44,1.22,1.22,0,0,1,.92.39,1.42,1.42,0,0,1,.37,1v2.1h-1v-2q0-.8-.58-.8a.7.7,0,0,0-.5.21A.82.82,0,0,0,98.77,21.91Zm4.24-.84v1.55a.44.44,0,0,0,.1.31.32.32,0,0,0,.24.11.56.56,0,0,0,.46-.24l.36.67a1.39,1.39,0,0,1-.95.41A1.15,1.15,0,0,1,102,22.67V21.07h-.4v-.69h.4v-1h1v1h.84v.69Zm3.35,1.43h-1V22a.9.9,0,0,1,.07-.4,1.71,1.71,0,0,1,.29-.36l.44-.45a.45.45,0,0,0,.1-.3.46.46,0,0,0-.1-.31.34.34,0,0,0-.27-.12.34.34,0,0,0-.28.14.74.74,0,0,0-.14.38h-1a1.54,1.54,0,0,1,.47-1,1.58,1.58,0,0,1,2,0,1.14,1.14,0,0,1,.38.91.87.87,0,0,1-.06.38l-.09.18a.88.88,0,0,1-.12.16l-.13.14-.29.29a1,1,0,0,0-.18.22.58.58,0,0,0,0,.26Zm-.88,1.22a.57.57,0,1,1,.4.16A.55.55,0,0,1,105.48,23.72Z" transform="translate(13.12)"/>
    <line class="cls-4" y1="44.7" x2="170.23" y2="44.7"/>
  </g>
</svg>
